<svg aria-hidden="true" style="position: absolute; width: 0; height: 0; overflow: hidden;" version="1.1" xmlns="http://www.w3.org/2000/svg" xmlns:xlink="http://www.w3.org/1999/xlink">
<defs>
<symbol id="icon-out-i" viewBox="0 0 40 32">
<path stroke-linejoin="round" stroke-linecap="round" stroke-miterlimit="4" stroke-width="2" d="M9.273 10l8.182 6 8.182-6"></path>
<path stroke-linejoin="miter" stroke-linecap="round" stroke-miterlimit="4" stroke-width="2" d="M31.091 30h-25.455c-0.964 0-1.889-0.421-2.571-1.172s-1.065-1.768-1.065-2.828v-20c0-1.061 0.383-2.078 1.065-2.828s1.607-1.172 2.571-1.172h23.636c0.964 0 1.889 0.421 2.571 1.172s1.065 1.768 1.065 2.828v4"></path>
<path stroke-linejoin="round" stroke-linecap="round" stroke-miterlimit="4" stroke-width="2" d="M28 20h10.909M38.909 20l-5.454-6M38.909 20l-5.454 6"></path>
</symbol>
<symbol id="icon-mail" viewBox="0 0 40 32">
<path d="M1 3C1 2.46957 1.21071 1.96086 1.58579 1.58579C1.96086 1.21071 2.46957 1 3 1H17C17.5304 1 18.0391 1.21071 18.4142 1.58579C18.7893 1.96086 19 2.46957 19 3V13C19 13.5304 18.7893 14.0391 18.4142 14.4142C18.0391 14.7893 17.5304 15 17 15H3C2.46957 15 1.96086 14.7893 1.58579 14.4142C1.21071 14.0391 1 13.5304 1 13V3Z"  stroke-width="1.5" stroke-linecap="round" stroke-linejoin="round"/></path>
<path d="M1 3L10 9L19 3"  stroke-width="1.5" stroke-linecap="round" stroke-linejoin="round"/></path>
</svg>
</symbol>
<symbol id="icon-letter" viewBox="0 0 36 32">
<path d="M5.064 8.717c-1.91 0-3.483 1.396-3.483 3.091v15.519c0 1.695 1.574 3.091 3.483 3.091h25.545c1.91 0 3.483-1.396 3.483-3.091v-15.519c0-0.537 0.084-1.090-0.15-1.763-0.117-0.336-0.371-0.729-0.787-0.984s-0.908-0.344-1.386-0.344h-4.645c-0.641 0-1.161 0.461-1.161 1.030s0.52 1.030 1.161 1.030h4.602c-4.14 3.21-8.387 6.404-12.582 9.591-0.829 0.648-1.788 0.648-2.617 0l-12.249-9.581c1.42 0 2.865-0.010 4.268-0.010 0.641 0 1.161-0.461 1.161-1.030s-0.52-1.030-1.161-1.030l-3.484 0zM3.903 13.243l11.088 8.671c1.626 1.272 4.066 1.272 5.692 0l11.088-8.424v13.837c0 0.589-0.498 1.030-1.161 1.030h-25.545c-0.663 0-1.161-0.442-1.161-1.030v-14.084z"></path>
<path d="M17.838 1.506c-0.641 0-1.161 0.461-1.161 1.030v9.025l-2.638-2.487c-0.546-0.491-1.139-0.406-1.642-0.044-0.467 0.39-0.49 1.042-0.050 1.457l4.645 4.379c0.459 0.433 1.233 0.433 1.692 0l4.645-4.379c0.44-0.414 0.418-1.067-0.050-1.457s-1.202-0.37-1.642 0.044l-2.638 2.487v-9.025c0-0.569-0.52-1.030-1.161-1.030z"></path>
</symbol>
<symbol id="icon-all-music" viewBox="0 0 32 32">
<path stroke-linejoin="round" stroke-linecap="round" stroke-miterlimit="4" stroke-width="1.3333" d="M8.744 7.849v16.301M5.869 11.222v9.556M3 14.314v3.372M11.638 11.222v9.556M14.631 14.314v3.372M23.113 7.849v16.301M20.238 11.222v9.556M17.369 14.314v3.372M26.007 11.222v9.556M29 14.314v3.372"></path>
</symbol>
<symbol id="icon-mail-out" viewBox="0 0 32 32">
<path stroke-linejoin="round" stroke-linecap="round" stroke-miterlimit="4" stroke-width="1.3333" d="M8.849 12l5.455 4 5.455-4"></path>
<path stroke-linejoin="miter" stroke-linecap="round" stroke-miterlimit="4" stroke-width="1.3333" d="M23.394 25.333h-16.97c-0.643 0-1.26-0.281-1.714-0.781s-0.71-1.178-0.71-1.886v-13.333c0-0.707 0.255-1.386 0.71-1.886s1.071-0.781 1.714-0.781h15.758c0.643 0 1.259 0.281 1.714 0.781s0.71 1.178 0.71 1.886v2.667"></path>
<path stroke-linejoin="round" stroke-linecap="round" stroke-miterlimit="4" stroke-width="1.3333" d="M21.333 18.667h7.273M28.606 18.667l-3.636-4M28.606 18.667l-3.636 4"></path>
</symbol>
<symbol id="icon-more-dots" viewBox="0 0 32 32">
<path d="M7.131 19.2c1.818 0 3.291-1.433 3.291-3.2s-1.474-3.2-3.291-3.2c-1.818 0-3.291 1.433-3.291 3.2s1.474 3.2 3.291 3.2z"></path>
<path d="M15.359 19.2c1.818 0 3.291-1.433 3.291-3.2s-1.474-3.2-3.291-3.2c-1.818 0-3.291 1.433-3.291 3.2s1.474 3.2 3.291 3.2z"></path>
<path d="M23.589 19.2c1.818 0 3.291-1.433 3.291-3.2s-1.474-3.2-3.291-3.2c-1.818 0-3.292 1.433-3.292 3.2s1.474 3.2 3.292 3.2z"></path>
</symbol>
<symbol id="icon-heart" viewBox="0 0 32 32">
<path d="M30 11.75c0 8.75-12.974 15.833-13.526 16.125-0.146 0.078-0.308 0.119-0.474 0.119s-0.328-0.041-0.474-0.119c-0.553-0.292-13.526-7.375-13.526-16.125 0.002-2.055 0.82-4.025 2.272-5.478s3.423-2.27 5.478-2.272c2.581 0 4.841 1.11 6.25 2.986 1.409-1.876 3.669-2.986 6.25-2.986 2.055 0.002 4.025 0.82 5.477 2.272s2.27 3.423 2.273 5.478z"></path>
</symbol>
<symbol id="icon-sort" viewBox="0 0 32 32">
<path d="M8.374 5.724c0.25-0.25 0.589-0.39 0.943-0.39s0.693 0.14 0.943 0.39l5.333 5.333c0.243 0.251 0.377 0.588 0.374 0.938s-0.143 0.684-0.391 0.931c-0.247 0.247-0.582 0.387-0.931 0.39s-0.686-0.131-0.938-0.374l-3.057-3.057v15.448c0 0.354-0.14 0.693-0.391 0.943s-0.589 0.391-0.943 0.391c-0.354 0-0.693-0.141-0.943-0.391s-0.391-0.589-0.391-0.943v-15.448l-3.057 3.057c-0.251 0.243-0.588 0.377-0.938 0.374s-0.684-0.143-0.931-0.39c-0.247-0.247-0.387-0.582-0.39-0.931s0.131-0.686 0.374-0.938l5.333-5.333zM21.317 22.115v-15.448c0-0.354 0.141-0.693 0.391-0.943s0.589-0.391 0.943-0.391c0.354 0 0.693 0.14 0.943 0.391s0.391 0.589 0.391 0.943v15.448l3.057-3.057c0.251-0.243 0.588-0.377 0.938-0.374s0.684 0.143 0.931 0.391c0.247 0.247 0.387 0.582 0.391 0.931s-0.131 0.686-0.374 0.938l-5.333 5.333c-0.25 0.25-0.589 0.39-0.943 0.39s-0.693-0.14-0.943-0.39l-5.333-5.333c-0.243-0.251-0.377-0.588-0.374-0.938s0.143-0.684 0.391-0.931 0.582-0.387 0.931-0.391c0.35-0.003 0.686 0.131 0.938 0.374l3.057 3.057z"></path>
</symbol>
<symbol id="icon-my-lists" viewBox="0 0 32 32">
<path stroke-linejoin="miter" stroke-linecap="butt" stroke-miterlimit="4" stroke-width="2" d="M4 5h8c0.92 0 1.667 0.746 1.667 1.667v6.667c0 0.92-0.746 1.667-1.667 1.667h-8c-0.92 0-1.667-0.746-1.667-1.667v-6.667c0-0.92 0.746-1.667 1.667-1.667z"></path>
<path stroke-linejoin="miter" stroke-linecap="butt" stroke-miterlimit="4" stroke-width="2" d="M18.667 5h8c0.92 0 1.667 0.746 1.667 1.667v6.667c0 0.92-0.746 1.667-1.667 1.667h-8c-0.92 0-1.667-0.746-1.667-1.667v-6.667c0-0.92 0.746-1.667 1.667-1.667z"></path>
<path stroke-linejoin="miter" stroke-linecap="butt" stroke-miterlimit="4" stroke-width="2" d="M4 18.333h8c0.92 0 1.667 0.746 1.667 1.667v6.667c0 0.92-0.746 1.667-1.667 1.667h-8c-0.92 0-1.667-0.746-1.667-1.667v-6.667c0-0.92 0.746-1.667 1.667-1.667z"></path>
<path stroke-linejoin="miter" stroke-linecap="butt" stroke-miterlimit="4" stroke-width="2" d="M18.667 18.333h8c0.92 0 1.667 0.746 1.667 1.667v6.667c0 0.92-0.746 1.667-1.667 1.667h-8c-0.92 0-1.667-0.746-1.667-1.667v-6.667c0-0.92 0.746-1.667 1.667-1.667z"></path>
</symbol>
<symbol id="icon-cabinet" viewBox="0 0 32 32">
<path d="M18.667 10.667h-5.333v-2.667h5.333v2.667zM26.667 5.333v21.333c0 1.48-1.187 2.667-2.667 2.667h-16c-1.48 0-2.667-1.187-2.667-2.667v-21.333c0-0.707 0.281-1.386 0.781-1.886s1.178-0.781 1.886-0.781h16c0.707 0 1.385 0.281 1.886 0.781s0.781 1.178 0.781 1.886zM24 17.333h-16v9.333h16v-9.333zM24 5.333h-16v9.333h16v-9.333zM18.667 20h-5.333v2.667h5.333v-2.667z"></path>
</symbol>
<symbol id="icon-down-arrow" viewBox="0 0 32 32">
<path d="M28.306 9.727c0.134-0.126 0.291-0.224 0.463-0.29s0.355-0.096 0.538-0.091 0.365 0.046 0.532 0.121c0.168 0.075 0.319 0.182 0.445 0.315s0.225 0.29 0.29 0.461c0.065 0.171 0.097 0.354 0.091 0.537s-0.047 0.364-0.122 0.531c-0.075 0.167-0.183 0.318-0.316 0.444l-12.593 11.862c-0.26 0.245-0.604 0.381-0.961 0.381s-0.701-0.137-0.961-0.381l-12.594-11.862c-0.136-0.125-0.247-0.276-0.324-0.444s-0.121-0.35-0.127-0.534c-0.007-0.185 0.024-0.369 0.089-0.542s0.165-0.331 0.292-0.466c0.127-0.134 0.28-0.242 0.449-0.317s0.352-0.116 0.537-0.12c0.185-0.004 0.37 0.029 0.542 0.096s0.33 0.169 0.463 0.297l11.634 10.958 11.631-10.958z"></path>
</symbol>
<symbol id="icon-player" viewBox="0 0 32 32">
<path d="M4 6.667v18.667c-0 0.235 0.062 0.465 0.179 0.668s0.286 0.372 0.49 0.488c0.203 0.117 0.434 0.178 0.669 0.177s0.465-0.063 0.667-0.182l16-9.333c0.201-0.117 0.369-0.285 0.485-0.488s0.177-0.431 0.177-0.664c0-0.233-0.061-0.462-0.177-0.664s-0.283-0.37-0.485-0.488l-16-9.333c-0.203-0.118-0.433-0.181-0.667-0.182s-0.465 0.060-0.669 0.177c-0.203 0.117-0.372 0.285-0.49 0.488s-0.179 0.434-0.179 0.668zM26.667 5.334c0.327 0 0.642 0.12 0.886 0.337s0.4 0.516 0.438 0.84l0.009 0.156v18.667c-0 0.34-0.131 0.667-0.364 0.914s-0.552 0.396-0.891 0.416c-0.339 0.020-0.673-0.091-0.934-0.309s-0.428-0.527-0.468-0.865l-0.009-0.156v-18.667c0-0.354 0.141-0.693 0.391-0.943s0.589-0.391 0.943-0.391z"></path>
</symbol>
<symbol id="icon-arrow" viewBox="0 0 32 32">
<path d="M13.4 22.587v-5.333h11.893l0.040-2.68h-11.933v-5.32l-6.667 6.667 6.667 6.667z"></path>
</symbol>
<symbol id="icon-dots" viewBox="0 0 32 32">
<path d="M8.091 19.2c1.818 0 3.291-1.433 3.291-3.2s-1.474-3.2-3.291-3.2-3.291 1.433-3.291 3.2c0 1.767 1.474 3.2 3.291 3.2z"></path>
<path d="M16.32 19.2c1.818 0 3.292-1.433 3.292-3.2s-1.474-3.2-3.292-3.2-3.291 1.433-3.291 3.2c0 1.767 1.474 3.2 3.291 3.2z"></path>
<path d="M24.549 19.2c1.818 0 3.291-1.433 3.291-3.2s-1.474-3.2-3.291-3.2c-1.818 0-3.292 1.433-3.292 3.2s1.474 3.2 3.292 3.2z"></path>
</symbol>
<symbol id="icon-save-icon" viewBox="0 0 32 32">
<path stroke-linejoin="round" stroke-linecap="round" stroke-miterlimit="4" stroke-width="2.6667" d="M10.667 9.333h-4c-0.707 0-1.386 0.281-1.886 0.781s-0.781 1.178-0.781 1.886v12c0 0.707 0.281 1.385 0.781 1.886s1.178 0.781 1.886 0.781h18.667c0.707 0 1.385-0.281 1.886-0.781s0.781-1.178 0.781-1.886v-12c0-0.707-0.281-1.386-0.781-1.886s-1.178-0.781-1.886-0.781h-4M20 14.667l-4 4M16 18.667l-4-4M16 18.667v-13.333"></path>
</symbol>
<symbol id="icon-Print-icon" viewBox="0 0 32 32">
<path d="M8.004 6.589v1.411h-1.147c-1.212 0-2.375 0.482-3.232 1.339s-1.339 2.020-1.339 3.232v8c0 0.909 0.361 1.781 1.004 2.424s1.515 1.004 2.424 1.004h2.286v1.143c0 0.909 0.361 1.781 1.004 2.424s1.515 1.004 2.424 1.004h9.143c0.909 0 1.781-0.361 2.424-1.004s1.004-1.515 1.004-2.424v-1.143h2.286c0.909 0 1.781-0.361 2.424-1.004s1.004-1.515 1.004-2.424v-8c0-1.212-0.482-2.375-1.339-3.232s-2.020-1.339-3.233-1.339h-1.143v-1.426c0-0.413-0.081-0.822-0.24-1.204s-0.39-0.728-0.682-1.020c-0.292-0.292-0.639-0.523-1.021-0.681s-0.791-0.239-1.204-0.238l-9.71 0.015c-0.833 0.001-1.631 0.333-2.219 0.922s-0.919 1.388-0.919 2.221zM22.285 6.574v1.426h-12.567v-1.411c0-0.789 0.638-1.427 1.426-1.429l9.71-0.015c0.188-0 0.374 0.036 0.547 0.108s0.331 0.177 0.464 0.31c0.133 0.133 0.238 0.29 0.31 0.464s0.109 0.359 0.109 0.547zM11.428 17.714h9.143c0.455 0 0.891 0.181 1.212 0.502s0.502 0.757 0.502 1.212v5.714c0 0.455-0.181 0.891-0.502 1.212s-0.758 0.502-1.212 0.502h-9.143c-0.455 0-0.891-0.181-1.212-0.502s-0.502-0.758-0.502-1.212v-5.714c0-0.455 0.181-0.891 0.502-1.212s0.758-0.502 1.212-0.502z"></path>
</symbol>
<symbol id="icon-check-in" viewBox="0 0 32 32">
<path d="M9.583 21.544l-5.561-5.567c-0.145-0.147-0.319-0.264-0.509-0.344s-0.396-0.121-0.603-0.121-0.412 0.041-0.603 0.121c-0.191 0.080-0.364 0.197-0.509 0.344-0.147 0.145-0.264 0.319-0.344 0.51s-0.121 0.396-0.121 0.603c0 0.207 0.041 0.412 0.121 0.603s0.197 0.365 0.344 0.51l6.657 6.664c0.62 0.62 1.62 0.62 2.24 0l16.84-16.843c0.147-0.146 0.264-0.319 0.344-0.51s0.121-0.396 0.121-0.603c0-0.207-0.041-0.412-0.121-0.603s-0.197-0.364-0.344-0.51c-0.145-0.147-0.319-0.264-0.509-0.344s-0.396-0.121-0.603-0.121c-0.207 0-0.412 0.041-0.603 0.121s-0.364 0.197-0.509 0.344l-15.728 15.746z"></path>
</symbol>
<symbol id="icon-plus-big" viewBox="0 0 32 32">
<path stroke-linejoin="miter" stroke-linecap="round" stroke-miterlimit="4" stroke-width="2.6667" d="M16 29.333v-26.667M2.667 16h26.667"></path>
</symbol>
<symbol id="icon-redo-active" viewBox="0 0 32 32">
<path d="M26.594 12.238l-5.891-5.83 1.941-1.943c0.531-0.532 1.184-0.798 1.959-0.798s1.427 0.266 1.957 0.798l1.941 1.943c0.531 0.532 0.809 1.174 0.832 1.927s-0.231 1.394-0.762 1.925l-1.975 1.978zM24.584 14.286l-14.693 14.714h-5.891v-5.9l14.693-14.714 5.891 5.9z"></path>
</symbol>
<symbol id="icon-trash" viewBox="0 0 32 32">
<path d="M9.333 28c-0.733 0-1.361-0.261-1.884-0.784s-0.784-1.15-0.783-1.883v-17.333h-1.333v-2.667h6.667v-1.333h8v1.333h6.667v2.667h-1.333v17.333c0 0.733-0.261 1.361-0.784 1.884s-1.15 0.784-1.883 0.783h-13.333zM12 22.667h2.667v-12h-2.667v12zM17.333 22.667h2.667v-12h-2.667v12z"></path>
</symbol>
<symbol id="icon-archive-active" viewBox="0 0 32 32">
<path d="M6.766 12.111v12.012c0 0.731 0.303 1.432 0.844 1.949s1.273 0.807 2.036 0.807h13.988c0.764 0 1.496-0.29 2.037-0.807s0.843-1.218 0.843-1.949v-12.012c0-0.052-0.022-0.102-0.060-0.139s-0.091-0.058-0.145-0.058h-19.337c-0.055 0-0.107 0.021-0.145 0.058s-0.060 0.087-0.060 0.139zM20.497 19.576l-3.275 3.135c-0.154 0.148-0.364 0.231-0.582 0.231s-0.427-0.083-0.582-0.231l-3.276-3.135c-0.313-0.3-0.342-0.788-0.044-1.102 0.075-0.079 0.166-0.143 0.267-0.187s0.211-0.069 0.322-0.071c0.111-0.003 0.222 0.016 0.326 0.056s0.197 0.099 0.276 0.174l1.887 1.806v-5.165c0-0.424 0.34-0.788 0.783-0.809 0.111-0.005 0.223 0.011 0.327 0.049s0.2 0.094 0.28 0.168c0.081 0.074 0.145 0.162 0.189 0.26s0.067 0.204 0.067 0.31v5.187l1.887-1.806c0.079-0.075 0.173-0.135 0.276-0.174s0.214-0.059 0.325-0.056c0.111 0.003 0.221 0.027 0.322 0.071s0.192 0.108 0.267 0.187c0.298 0.314 0.269 0.802-0.044 1.102z"></path>
<path d="M26.514 6.4h-19.749c-0.909 0-1.646 0.705-1.646 1.575v0.788c0 0.87 0.737 1.575 1.646 1.575h19.749c0.909 0 1.646-0.705 1.646-1.575v-0.788c0-0.87-0.737-1.575-1.646-1.575z"></path>
</symbol>
<symbol id="icon-delete-active" viewBox="0 0 32 32">
<path d="M14.487 7.857v0.429h4.359v-0.429c0-0.568-0.23-1.113-0.638-1.515s-0.963-0.628-1.541-0.628-1.132 0.226-1.541 0.628c-0.409 0.402-0.638 0.947-0.638 1.515zM12.744 8.286v-0.429c0-1.023 0.413-2.004 1.149-2.727s1.734-1.13 2.774-1.13c1.040 0 2.038 0.406 2.774 1.13s1.149 1.704 1.149 2.727v0.429h6.539c0.231 0 0.453 0.090 0.616 0.251s0.255 0.379 0.255 0.606c0 0.227-0.092 0.445-0.255 0.606s-0.385 0.251-0.616 0.251h-1.315l-1.649 14.201c-0.122 1.046-0.631 2.011-1.43 2.712s-1.833 1.088-2.903 1.087h-6.329c-1.071 0.001-2.104-0.386-2.903-1.087s-1.308-1.666-1.43-2.712l-1.649-14.201h-1.315c-0.231 0-0.453-0.090-0.616-0.251s-0.255-0.379-0.255-0.606c0-0.227 0.092-0.445 0.255-0.606s0.385-0.251 0.616-0.251h6.538zM14.923 13.857c0-0.227-0.092-0.445-0.255-0.606s-0.385-0.251-0.616-0.251-0.453 0.090-0.617 0.251c-0.163 0.161-0.255 0.379-0.255 0.606v8.571c0 0.227 0.092 0.445 0.255 0.606s0.385 0.251 0.617 0.251c0.231 0 0.453-0.090 0.616-0.251s0.255-0.379 0.255-0.606v-8.571zM19.282 13c-0.231 0-0.453 0.090-0.616 0.251s-0.255 0.379-0.255 0.606v8.571c0 0.227 0.092 0.445 0.255 0.606s0.385 0.251 0.616 0.251c0.231 0 0.453-0.090 0.617-0.251s0.255-0.379 0.255-0.606v-8.571c0-0.227-0.092-0.445-0.255-0.606s-0.385-0.251-0.617-0.251z"></path>
</symbol>
<symbol id="icon-star-active" viewBox="0 0 32 32">
<path d="M15.398 3.935c0.397-1.232 2.141-1.232 2.538 0l2.155 6.682c0.178 0.552 0.692 0.925 1.272 0.924l7.021-0.015c1.295-0.003 1.833 1.655 0.784 2.414l-5.689 4.114c-0.47 0.34-0.666 0.944-0.486 1.495l2.184 6.672c0.403 1.23-1.008 2.255-2.053 1.492l-5.671-4.139c-0.468-0.342-1.104-0.342-1.572 0l-5.671 4.139c-1.046 0.763-2.456-0.261-2.053-1.492l2.184-6.672c0.18-0.551-0.016-1.155-0.486-1.495l-5.689-4.114c-1.049-0.759-0.51-2.417 0.784-2.414l7.021 0.015c0.58 0.001 1.094-0.372 1.272-0.924l2.155-6.682z"></path>
</symbol>
<symbol id="icon-mail-active" viewBox="0 0 32 32">
<path d="M7.356 12.654v2.449l-1.563-1.225 1.563-1.225z"></path>
<path d="M27.485 13.878l-1.563 1.225v-2.449l1.563 1.224z"></path>
<path d="M28.157 24.319h-23.037l6.33-4.954c2.867-2.245 7.515-2.245 10.382 0l6.325 4.954z"></path>
<path d="M10.774 18.837l-5.653 4.428v-8.855c1.275 0.999 4.259 3.336 5.653 4.428z"></path>
<path d="M28.158 14.409v8.855c-1.275-0.999-4.259-3.336-5.653-4.428 7.747-6.068 5.075-3.975 5.653-4.428z"></path>
<path d="M24.968 9.196h-1.587c-0.71 0-1.287-0.452-1.287-1.008v-1.788l0.024 0.022 2.85 2.774z"></path>
<path d="M23.382 9.944c-1.235 0-2.24-0.788-2.24-1.755v-1.788h-11.545c-0.71 0-1.287 0.452-1.287 1.008v8.441l3.179 2.49c1.463-0.911 3.26-1.404 5.153-1.404s3.689 0.493 5.148 1.404c0.186-0.142 3.132-2.449 3.179-2.486v-5.91h-1.587zM10.769 8.533h6.325c0.324 0 0.591 0.205 0.591 0.463 0 0.254-0.267 0.463-0.591 0.463h-6.325c-0.324 0-0.591-0.209-0.591-0.463 0-0.258 0.267-0.463 0.591-0.463zM18.286 14.98h-7.812c-0.214 0-0.391-0.138-0.391-0.306s0.176-0.306 0.391-0.306h7.812c0.215 0 0.391 0.138 0.391 0.306s-0.176 0.306-0.391 0.306zM22.562 13.629h-12.088c-0.214 0-0.391-0.138-0.391-0.306 0-0.172 0.176-0.306 0.391-0.306h12.088c0.219 0 0.391 0.134 0.391 0.306 0 0.168-0.172 0.306-0.391 0.306zM22.562 12.274h-12.088c-0.214 0-0.391-0.138-0.391-0.306s0.176-0.306 0.391-0.306h12.088c0.219 0 0.391 0.138 0.391 0.306s-0.172 0.306-0.391 0.306zM22.562 10.922h-12.088c-0.214 0-0.391-0.138-0.391-0.306 0-0.172 0.176-0.306 0.391-0.306h12.088c0.219 0 0.391 0.134 0.391 0.306 0 0.168-0.172 0.306-0.391 0.306z"></path>
</symbol>
<symbol id="icon-pause" viewBox="0 0 32 32">
<path d="M13.333 24c0 0.354-0.14 0.693-0.391 0.943s-0.589 0.391-0.943 0.391h-1.333c-0.354 0-0.693-0.141-0.943-0.391s-0.391-0.589-0.391-0.943v-16c0-0.354 0.14-0.693 0.391-0.943s0.589-0.391 0.943-0.391h1.333c0.354 0 0.693 0.14 0.943 0.391s0.391 0.589 0.391 0.943v16zM22.667 24c0 0.354-0.141 0.693-0.391 0.943s-0.589 0.391-0.943 0.391h-1.333c-0.354 0-0.693-0.141-0.943-0.391s-0.391-0.589-0.391-0.943v-16c0-0.354 0.141-0.693 0.391-0.943s0.589-0.391 0.943-0.391h1.333c0.354 0 0.693 0.14 0.943 0.391s0.391 0.589 0.391 0.943v16z"></path>
</symbol>
<symbol id="icon-random-press" viewBox="0 0 32 32">
<path stroke-linejoin="miter" stroke-linecap="butt" stroke-miterlimit="4" stroke-width="1" d="M4.946 23.352c2.781 0 4.998-0.934 6.651-2.803 0-0.131-0.094-0.246-0.282-0.344l-1.071-1.869c-0.488 0.885-1.212 1.598-2.17 2.139s-2.001 0.811-3.128 0.811h-2.762c-0.301 0-0.573 0.107-0.817 0.32s-0.366 0.451-0.366 0.713 0.122 0.5 0.366 0.713c0.244 0.213 0.517 0.32 0.817 0.32h2.762zM25.913 5.844c-0.601-0.459-1.165-0.459-1.691 0-0.564 0.492-0.564 0.984 0 1.475l1.522 1.377h-4.678c-2.743 0-4.941 0.934-6.595 2.803 0 0.098 0.075 0.213 0.226 0.344l1.071 1.869c0.488-0.885 1.212-1.598 2.17-2.139s2.001-0.811 3.128-0.811h4.678l-1.522 1.377c-0.564 0.492-0.564 0.984 0 1.475 0.226 0.197 0.507 0.295 0.846 0.295 0.263 0 0.545-0.098 0.846-0.295l3.607-3.148c0.488-0.492 0.488-0.984 0-1.475l-3.607-3.148zM25.913 18.434c-0.601-0.459-1.165-0.459-1.691 0-0.564 0.492-0.564 0.984 0 1.475l1.522 1.377h-4.678c-1.127 0-2.18-0.27-3.157-0.811s-1.729-1.254-2.255-2.139l-1.296-2.311-1.353-2.312-0.564-0.934c-0.676-1.246-1.691-2.238-3.044-2.975s-2.837-1.107-4.453-1.107h-2.762c-0.301 0-0.573 0.107-0.817 0.32s-0.366 0.451-0.366 0.713c0 0.262 0.122 0.5 0.366 0.713s0.517 0.32 0.817 0.32h2.762c2.405 0 4.209 0.984 5.411 2.951l1.353 2.311 1.296 2.311 0.62 0.934c0.752 1.246 1.794 2.238 3.128 2.975s2.809 1.107 4.425 1.107h4.735l-1.578 1.377c-0.564 0.492-0.564 0.984 0 1.475 0.225 0.197 0.507 0.295 0.846 0.295 0.301 0 0.582-0.098 0.845-0.295l3.607-3.148c0.488-0.492 0.488-0.984 0-1.475l-3.72-3.148z"></path>
</symbol>
<symbol id="icon-random" viewBox="0 0 32 32">
<path d="M4.946 23.352c2.781 0 4.998-0.934 6.651-2.803 0-0.131-0.094-0.246-0.282-0.344l-1.071-1.869c-0.488 0.885-1.212 1.598-2.17 2.139s-2.001 0.811-3.128 0.811h-2.762c-0.301 0-0.573 0.107-0.817 0.32s-0.366 0.451-0.366 0.713 0.122 0.5 0.366 0.713c0.244 0.213 0.517 0.32 0.817 0.32h2.762zM25.913 5.844c-0.601-0.459-1.165-0.459-1.691 0-0.564 0.492-0.564 0.984 0 1.475l1.522 1.377h-4.678c-2.743 0-4.941 0.934-6.595 2.803 0 0.098 0.075 0.213 0.226 0.344l1.071 1.869c0.488-0.885 1.212-1.598 2.17-2.139s2.001-0.811 3.128-0.811h4.678l-1.522 1.377c-0.564 0.492-0.564 0.984 0 1.475 0.226 0.197 0.507 0.295 0.846 0.295 0.263 0 0.545-0.098 0.846-0.295l3.607-3.148c0.488-0.492 0.488-0.984 0-1.475l-3.607-3.148zM25.913 18.434c-0.601-0.459-1.165-0.459-1.691 0-0.564 0.492-0.564 0.984 0 1.475l1.522 1.377h-4.678c-1.127 0-2.18-0.27-3.157-0.811s-1.729-1.254-2.255-2.139l-1.296-2.311-1.353-2.312-0.564-0.934c-0.676-1.246-1.691-2.238-3.044-2.975s-2.837-1.107-4.453-1.107h-2.762c-0.301 0-0.573 0.107-0.817 0.32s-0.366 0.451-0.366 0.713c0 0.262 0.122 0.5 0.366 0.713s0.517 0.32 0.817 0.32h2.762c2.405 0 4.209 0.984 5.411 2.951l1.353 2.311 1.296 2.311 0.62 0.934c0.752 1.246 1.794 2.238 3.128 2.975s2.809 1.107 4.425 1.107h4.735l-1.578 1.377c-0.564 0.492-0.564 0.984 0 1.475 0.225 0.197 0.507 0.295 0.846 0.295 0.301 0 0.582-0.098 0.845-0.295l3.607-3.148c0.488-0.492 0.488-0.984 0-1.475l-3.72-3.148z"></path>
</symbol>
<symbol id="icon-remote" viewBox="0 0 32 32">
<path d="M1.601 14.279l12.068-7.322c0.299-0.184 0.64-0.284 0.99-0.288s0.694 0.086 0.997 0.263c0.329 0.194 0.601 0.473 0.789 0.808s0.285 0.715 0.282 1.101v5.122l11.547-7.009c0.299-0.184 0.64-0.284 0.99-0.288s0.694 0.086 0.997 0.263c0.329 0.194 0.601 0.473 0.789 0.808s0.285 0.715 0.282 1.101v14.321c0.004 0.386-0.094 0.766-0.282 1.101s-0.46 0.615-0.789 0.809c-0.303 0.177-0.647 0.267-0.997 0.263s-0.691-0.104-0.99-0.288l-11.547-7.012v5.124c0.004 0.386-0.093 0.767-0.281 1.103s-0.461 0.615-0.79 0.81c-0.303 0.177-0.647 0.267-0.997 0.263s-0.691-0.104-0.99-0.288l-12.068-7.322c-0.287-0.182-0.523-0.435-0.687-0.736s-0.25-0.638-0.25-0.981 0.086-0.681 0.25-0.981c0.164-0.3 0.4-0.554 0.687-0.736v-0.009z"></path>
</symbol>
<symbol id="icon-play" viewBox="0 0 32 32">
<path d="M6 7.537c0-1.901 2.039-3.107 3.705-2.191l15.387 8.464c1.727 0.949 1.727 3.431 0 4.38l-15.385 8.464c-1.667 0.916-3.705-0.289-3.705-2.191l-0.001-16.927z"></path>
</symbol>
<symbol id="icon-remote-press" viewBox="0 0 32 32">
<path stroke-linejoin="miter" stroke-linecap="butt" stroke-miterlimit="10" stroke-width="2" d="M30 22.905v-13.813c0-0.83-0.813-1.357-1.477-0.959l-11.804 7.062c-0.578 0.346-0.578 1.254 0 1.6l11.804 7.063c0.664 0.404 1.477-0.123 1.477-0.953zM15.714 22.905v-13.813c0-0.83-0.813-1.357-1.477-0.959l-11.804 7.062c-0.578 0.346-0.578 1.254 0 1.6l11.804 7.063c0.665 0.404 1.477-0.123 1.477-0.953z"></path>
</symbol>
<symbol id="icon-empty-checkbox" viewBox="0 0 32 32">
<path stroke-linejoin="round" stroke-linecap="butt" stroke-miterlimit="4" stroke-width="2" d="M25 4h-18c-1.657 0-3 1.343-3 3v18c0 1.657 1.343 3 3 3h18c1.657 0 3-1.343 3-3v-18c0-1.657-1.343-3-3-3z"></path>
</symbol>
<symbol id="icon-checkbox" viewBox="0 0 32 32">
<path stroke-linejoin="round" stroke-linecap="round" stroke-miterlimit="4" stroke-width="2" d="M22 11l-8.4 10-3.6-4"></path>
<path stroke-linejoin="round" stroke-linecap="butt" stroke-miterlimit="4" stroke-width="2" d="M25 4h-18c-1.657 0-3 1.343-3 3v18c0 1.657 1.343 3 3 3h18c1.657 0 3-1.343 3-3v-18c0-1.657-1.343-3-3-3z"></path>
</symbol>
<symbol id="icon-analytics" viewBox="0 0 32 32">
<path stroke-linejoin="round" stroke-linecap="round" stroke-miterlimit="4" stroke-width="2" d="M21.5 17.5l5.5-5.5M14.5 13.5l4 4M5 20l6.5-6.5"></path>
<path stroke-linejoin="round" stroke-linecap="round" stroke-miterlimit="4" stroke-width="2" d="M28.5 12c0.828 0 1.5-0.672 1.5-1.5s-0.672-1.5-1.5-1.5c-0.828 0-1.5 0.672-1.5 1.5s0.672 1.5 1.5 1.5z"></path>
<path stroke-linejoin="round" stroke-linecap="round" stroke-miterlimit="4" stroke-width="2" d="M20 20.5c0.828 0 1.5-0.672 1.5-1.5s-0.672-1.5-1.5-1.5c-0.828 0-1.5 0.672-1.5 1.5s0.672 1.5 1.5 1.5z"></path>
<path stroke-linejoin="round" stroke-linecap="round" stroke-miterlimit="4" stroke-width="2" d="M13 13.5c0.828 0 1.5-0.672 1.5-1.5s-0.672-1.5-1.5-1.5c-0.828 0-1.5 0.672-1.5 1.5s0.672 1.5 1.5 1.5z"></path>
<path stroke-linejoin="round" stroke-linecap="round" stroke-miterlimit="4" stroke-width="2" d="M3.5 23c0.828 0 1.5-0.672 1.5-1.5s-0.672-1.5-1.5-1.5c-0.828 0-1.5 0.672-1.5 1.5s0.672 1.5 1.5 1.5z"></path>
</symbol>
<symbol id="icon-online" viewBox="0 0 32 32">
<path d="M14.344 29.391c-0.104 0.396-0.182 0.797-0.234 1.203s-0.089 0.823-0.109 1.25c-1.333-0.156-2.604-0.469-3.813-0.937s-2.328-1.068-3.359-1.797c-1.031-0.729-1.969-1.573-2.813-2.531s-1.563-2-2.156-3.125c-0.594-1.125-1.052-2.312-1.375-3.562s-0.484-2.547-0.484-3.891c0-1.469 0.188-2.885 0.563-4.25s0.911-2.641 1.609-3.828c0.698-1.188 1.531-2.266 2.5-3.234s2.052-1.802 3.25-2.5c1.198-0.698 2.469-1.234 3.813-1.609s2.766-0.568 4.266-0.578c1.469 0 2.88 0.188 4.234 0.563s2.63 0.917 3.828 1.625c1.198 0.708 2.276 1.542 3.234 2.5s1.797 2.042 2.516 3.25c0.719 1.208 1.255 2.479 1.609 3.813s0.547 2.75 0.578 4.25h-1.109c-0.146-0.24-0.297-0.474-0.453-0.703s-0.339-0.448-0.547-0.656c-0.063-0.906-0.224-1.787-0.484-2.641h-19.141c-0.083 0.667-0.146 1.328-0.188 1.984s-0.068 1.328-0.078 2.016c0 0.677 0.021 1.344 0.063 2s0.109 1.323 0.203 2h5.734c0 0.333 0.026 0.667 0.078 1s0.12 0.667 0.203 1h-5.672c0.125 0.594 0.292 1.245 0.5 1.953s0.469 1.401 0.781 2.078 0.672 1.313 1.078 1.906c0.406 0.594 0.865 1.078 1.375 1.453zM28.641 10c-0.406-0.844-0.885-1.635-1.438-2.375s-1.177-1.417-1.875-2.031-1.437-1.161-2.219-1.641c-0.781-0.479-1.625-0.87-2.531-1.172 0.375 0.521 0.708 1.073 1 1.656s0.557 1.182 0.797 1.797c0.24 0.615 0.443 1.24 0.609 1.875s0.313 1.266 0.437 1.891h5.219zM16 2c-0.521 0-1 0.141-1.437 0.422s-0.844 0.651-1.219 1.109c-0.375 0.458-0.708 0.974-1 1.547s-0.557 1.161-0.797 1.766c-0.24 0.604-0.432 1.177-0.578 1.719s-0.266 1.021-0.359 1.438h10.781c-0.083-0.406-0.203-0.885-0.359-1.438s-0.349-1.125-0.578-1.719c-0.229-0.594-0.489-1.177-0.781-1.75s-0.625-1.094-1-1.563c-0.375-0.469-0.786-0.839-1.234-1.109s-0.927-0.411-1.437-0.422zM11.438 2.766c-0.885 0.302-1.729 0.688-2.531 1.156s-1.547 1.016-2.234 1.641c-0.688 0.625-1.313 1.307-1.875 2.047s-1.042 1.536-1.438 2.391h5.219c0.115-0.573 0.255-1.182 0.422-1.828s0.375-1.292 0.625-1.938c0.25-0.646 0.521-1.266 0.813-1.859s0.625-1.13 1-1.609zM2 16c0 1.385 0.193 2.719 0.578 4h5.672c-0.083-0.667-0.146-1.328-0.188-1.984s-0.063-1.328-0.063-2.016c0-0.677 0.021-1.344 0.063-2s0.104-1.323 0.188-2h-5.672c-0.385 1.281-0.578 2.615-0.578 4zM3.328 22c0.406 0.844 0.885 1.635 1.438 2.375s1.177 1.422 1.875 2.047c0.698 0.625 1.448 1.167 2.25 1.625s1.646 0.849 2.531 1.172c-0.375-0.521-0.708-1.073-1-1.656s-0.557-1.182-0.797-1.797c-0.24-0.615-0.443-1.24-0.609-1.875s-0.318-1.266-0.453-1.891h-5.234zM27.531 24.828c0.677 0.344 1.292 0.766 1.844 1.266s1.021 1.063 1.406 1.687c0.385 0.625 0.688 1.292 0.906 2s0.323 1.448 0.313 2.219h-2c0-0.823-0.156-1.599-0.469-2.328s-0.739-1.365-1.281-1.906c-0.542-0.542-1.182-0.974-1.922-1.297s-1.516-0.479-2.328-0.469c-0.833 0-1.609 0.156-2.328 0.469s-1.354 0.739-1.906 1.281c-0.552 0.542-0.984 1.182-1.297 1.922s-0.469 1.516-0.469 2.328h-2c0-0.76 0.104-1.495 0.313-2.203s0.505-1.38 0.891-2.016c0.385-0.635 0.854-1.198 1.406-1.687s1.167-0.911 1.844-1.266c-0.781-0.563-1.385-1.266-1.812-2.109s-0.641-1.75-0.641-2.719c0-0.823 0.156-1.599 0.469-2.328s0.739-1.365 1.281-1.906c0.542-0.542 1.177-0.974 1.906-1.297s1.51-0.479 2.344-0.469c0.823 0 1.599 0.156 2.328 0.469s1.365 0.739 1.906 1.281c0.542 0.542 0.974 1.182 1.297 1.922s0.479 1.516 0.469 2.328c0 0.958-0.214 1.859-0.641 2.703s-1.036 1.552-1.828 2.125zM24 24c0.552 0 1.068-0.104 1.547-0.313s0.906-0.495 1.281-0.859c0.375-0.365 0.661-0.787 0.859-1.266s0.302-1 0.313-1.563c0-0.552-0.104-1.068-0.313-1.547s-0.495-0.906-0.859-1.281c-0.365-0.375-0.787-0.661-1.266-0.859s-1-0.302-1.563-0.313c-0.552 0-1.068 0.104-1.547 0.313s-0.906 0.495-1.281 0.859c-0.375 0.365-0.661 0.787-0.859 1.266s-0.302 1-0.313 1.563c0 0.552 0.104 1.068 0.313 1.547s0.495 0.906 0.859 1.281c0.365 0.375 0.787 0.661 1.266 0.859s1 0.302 1.563 0.313z"></path>
</symbol>
<symbol id="icon-restore" viewBox="0 0 32 32">
<path d="M14 4c-0.523 0-1.059 0.184-1.438 0.563-0.377 0.377-0.562 0.913-0.562 1.437v1h-7v2h1.094l1.906 18.094 0.094 0.906h15.812l0.094-0.906 1.906-18.094h1.094v-2h-7v-1c0-0.523-0.183-1.059-0.563-1.438-0.377-0.378-0.914-0.562-1.437-0.562h-4zM14 6h4v1h-4v-1zM8.125 9h15.75l-1.781 17h-12.188l-1.781-17zM16 12l-4 4h3v7h2v-7h3l-4-4z"></path>
</symbol>
<symbol id="icon-list" viewBox="0 0 32 32">
<path stroke-linejoin="round" stroke-linecap="round" stroke-miterlimit="4" stroke-width="2" d="M10 9h18M10 16h18M10 23h18"></path>
<path stroke-linejoin="round" stroke-linecap="round" stroke-miterlimit="4" stroke-width="2" d="M5 10c0.552 0 1-0.448 1-1s-0.448-1-1-1c-0.552 0-1 0.448-1 1s0.448 1 1 1z"></path>
<path stroke-linejoin="round" stroke-linecap="round" stroke-miterlimit="4" stroke-width="2" d="M5 17c0.552 0 1-0.448 1-1s-0.448-1-1-1c-0.552 0-1 0.448-1 1s0.448 1 1 1z"></path>
<path stroke-linejoin="round" stroke-linecap="round" stroke-miterlimit="4" stroke-width="2" d="M5 24c0.552 0 1-0.448 1-1s-0.448-1-1-1c-0.552 0-1 0.448-1 1s0.448 1 1 1z"></path>
</symbol>
<symbol id="icon-house" viewBox="0 0 32 32">
<path d="M30 23h-1v-15.762l1.209-0.26c0.131-0.025 0.256-0.075 0.367-0.149s0.207-0.169 0.281-0.28c0.074-0.111 0.125-0.236 0.15-0.367s0.023-0.266-0.005-0.396c-0.028-0.131-0.082-0.254-0.158-0.364s-0.174-0.202-0.287-0.273c-0.113-0.071-0.239-0.119-0.371-0.14s-0.266-0.017-0.396 0.015l-28 6c-0.241 0.052-0.455 0.191-0.599 0.391s-0.21 0.446-0.184 0.692c0.026 0.245 0.142 0.472 0.325 0.638s0.421 0.257 0.668 0.257c0.071-0 0.142-0.008 0.211-0.023l0.789-0.169v10.191h-1c-0.265 0-0.52 0.105-0.707 0.293s-0.293 0.442-0.293 0.707 0.105 0.52 0.293 0.707c0.188 0.188 0.442 0.293 0.707 0.293h28c0.265 0 0.52-0.105 0.707-0.293s0.293-0.442 0.293-0.707-0.105-0.52-0.293-0.707c-0.187-0.188-0.442-0.293-0.707-0.293zM5 12.375l22-4.709v15.334h-3v-7c0-0.265-0.105-0.52-0.293-0.707s-0.442-0.293-0.707-0.293h-14c-0.265 0-0.52 0.105-0.707 0.293s-0.293 0.442-0.293 0.707v7h-3v-10.625zM22 19h-12v-2h12v2zM10 21h12v2h-12v-2z"></path>
</symbol>
<symbol id="icon-album" viewBox="0 0 32 32">
<path stroke-linejoin="round" stroke-linecap="round" stroke-miterlimit="4" stroke-width="2" d="M16 18.667c1.473 0 2.667-1.194 2.667-2.667s-1.194-2.667-2.667-2.667c-1.473 0-2.667 1.194-2.667 2.667s1.194 2.667 2.667 2.667z"></path>
<path stroke-linejoin="round" stroke-linecap="round" stroke-miterlimit="4" stroke-width="2" d="M24 14.667c1.473 0 2.667-1.194 2.667-2.667s-1.194-2.667-2.667-2.667-2.667 1.194-2.667 2.667c0 1.473 1.194 2.667 2.667 2.667z"></path>
<path stroke-linejoin="round" stroke-linecap="round" stroke-miterlimit="4" stroke-width="2" d="M20.424 4.841c-2.259-0.895-4.737-1.083-7.105-0.539s-4.516 1.794-6.158 3.585-2.702 4.038-3.040 6.445c-0.337 2.407 0.064 4.859 1.151 7.032s2.808 3.966 4.935 5.14c2.128 1.174 4.562 1.675 6.98 1.435s4.707-1.207 6.563-2.776c1.856-1.568 3.192-3.663 3.832-6.008M26.666 12v-9.333l2.667 2.667"></path>
</symbol>
<symbol id="icon-plus" viewBox="0 0 32 32">
<path d="M24 17.331h-6.667v6.667c0 0.354-0.141 0.693-0.391 0.943s-0.589 0.39-0.943 0.39-0.693-0.14-0.943-0.39c-0.25-0.25-0.391-0.589-0.391-0.943v-6.667h-6.667c-0.354 0-0.693-0.14-0.943-0.39s-0.391-0.589-0.391-0.943c0-0.354 0.14-0.693 0.391-0.943s0.589-0.391 0.943-0.391h6.667v-6.667c0-0.354 0.141-0.693 0.391-0.943s0.589-0.391 0.943-0.391c0.354 0 0.693 0.14 0.943 0.391s0.391 0.589 0.391 0.943v6.667h6.667c0.354 0 0.693 0.141 0.943 0.391s0.391 0.589 0.391 0.943c0 0.354-0.141 0.693-0.391 0.943s-0.589 0.39-0.943 0.39z"></path>
</symbol>
<symbol id="icon-playlist" viewBox="0 0 32 32">
<path stroke-linejoin="round" stroke-linecap="butt" stroke-miterlimit="4" stroke-width="2.6667" d="M8 8.976l-4 2.309v-4.619l4 2.309z"></path>
<path stroke-linejoin="round" stroke-linecap="round" stroke-miterlimit="4" stroke-width="2.6667" d="M4 16.977h24M13.333 8.977h14.667M4 24.977h24"></path>
</symbol>
<symbol id="icon-delete" viewBox="0 0 32 32">
<path stroke-linejoin="miter" stroke-linecap="butt" stroke-miterlimit="4" stroke-width="0.9333" d="M9.333 28c-0.733 0-1.361-0.261-1.884-0.784s-0.784-1.15-0.783-1.883v-17.333h-1.333v-2.667h6.667v-1.333h8v1.333h6.667v2.667h-1.333v17.333c0 0.733-0.261 1.361-0.784 1.884s-1.15 0.784-1.883 0.783h-13.333zM22.667 8h-13.333v17.333h13.333v-17.333zM12 22.667h2.667v-12h-2.667v12zM17.333 22.667h2.667v-12h-2.667v12z"></path>
</symbol>
<symbol id="icon-playlist-add" viewBox="0 0 32 32">
<path d="M17.333 13.333h-13.333c-0.733 0-1.333 0.6-1.333 1.333s0.6 1.333 1.333 1.333h13.333c0.733 0 1.333-0.6 1.333-1.333s-0.6-1.333-1.333-1.333zM17.333 8h-13.333c-0.733 0-1.333 0.6-1.333 1.333s0.6 1.333 1.333 1.333h13.333c0.733 0 1.333-0.6 1.333-1.333s-0.6-1.333-1.333-1.333zM24 18.667v-4c0-0.733-0.6-1.333-1.333-1.333s-1.333 0.6-1.333 1.333v4h-4c-0.733 0-1.333 0.6-1.333 1.333s0.6 1.333 1.333 1.333h4v4c0 0.733 0.6 1.333 1.333 1.333s1.333-0.6 1.333-1.333v-4h4c0.733 0 1.333-0.6 1.333-1.333s-0.6-1.333-1.333-1.333h-4zM4 21.333h8c0.733 0 1.333-0.6 1.333-1.333s-0.6-1.333-1.333-1.333h-8c-0.733 0-1.333 0.6-1.333 1.333s0.6 1.333 1.333 1.333z"></path>
</symbol>
<symbol id="icon-music-note" viewBox="0 0 32 32">
<path d="M24.897 4.889c-0.849 0.151-1.968 0.52-3.6 1.065l-5.333 1.777c-0.903 0.301-1.499 0.501-1.939 0.707-0.416 0.192-0.596 0.348-0.711 0.508s-0.207 0.38-0.259 0.836c-0.053 0.48-0.056 1.111-0.056 2.061v2.768l14-4.667c0-1.656-0.005-2.8-0.128-3.633-0.121-0.831-0.331-1.129-0.564-1.299-0.233-0.168-0.584-0.272-1.411-0.124zM28.987 8c-0.016-0.753-0.053-1.413-0.136-1.977-0.155-1.057-0.5-2.001-1.373-2.632-0.873-0.629-1.879-0.657-2.931-0.471-1.011 0.18-2.269 0.6-3.805 1.112l-5.464 1.82c-0.835 0.28-1.54 0.515-2.095 0.773-0.591 0.273-1.103 0.613-1.491 1.152s-0.549 1.132-0.623 1.779c-0.038 0.369-0.059 0.74-0.063 1.111h-0.007v10.665c-0.901-0.676-2.004-1.028-3.13-0.998s-2.209 0.438-3.074 1.16-1.46 1.714-1.691 2.817c-0.23 1.103-0.081 2.251 0.422 3.258s1.333 1.815 2.353 2.293c1.020 0.477 2.172 0.596 3.268 0.337s2.073-0.88 2.772-1.763c0.699-0.883 1.079-1.977 1.079-3.103v-8.612l14-4.667v6.613c-0.901-0.676-2.004-1.028-3.13-0.998s-2.209 0.438-3.074 1.16-1.461 1.714-1.691 2.817c-0.23 1.103-0.081 2.251 0.422 3.258s1.333 1.815 2.353 2.293c1.020 0.477 2.172 0.596 3.268 0.337s2.073-0.88 2.772-1.763c0.699-0.883 1.079-1.977 1.079-3.103v-14.667h-0.013zM27 22.667c0-0.796-0.316-1.559-0.879-2.121s-1.326-0.879-2.121-0.879-1.559 0.316-2.121 0.879c-0.563 0.563-0.879 1.326-0.879 2.121s0.316 1.559 0.879 2.121c0.563 0.563 1.326 0.879 2.121 0.879s1.559-0.316 2.121-0.879c0.563-0.563 0.879-1.326 0.879-2.121zM11 25.333c0-0.796-0.316-1.559-0.879-2.121s-1.326-0.879-2.121-0.879-1.559 0.316-2.121 0.879c-0.563 0.563-0.879 1.326-0.879 2.121s0.316 1.559 0.879 2.121c0.563 0.563 1.326 0.879 2.121 0.879s1.559-0.316 2.121-0.879c0.563-0.563 0.879-1.326 0.879-2.121z"></path>
</symbol>
<symbol id="icon-star" viewBox="0 0 32 32">
<path stroke-linejoin="miter" stroke-linecap="butt" stroke-miterlimit="4" stroke-width="1.3333" d="M16.032 4.139c0.199-0.616 1.070-0.616 1.269 0l2.155 6.682c0.267 0.828 1.038 1.388 1.908 1.386l7.021-0.015c0.647-0.001 0.917 0.828 0.392 1.207l-5.689 4.114c-0.705 0.51-0.999 1.416-0.729 2.243l2.184 6.673c0.201 0.615-0.504 1.127-1.027 0.746l-5.671-4.139c-0.702-0.513-1.656-0.513-2.358 0l-5.671 4.139c-0.523 0.382-1.228-0.131-1.027-0.746l2.184-6.673c0.271-0.826-0.024-1.733-0.729-2.243l-5.689-4.114c-0.524-0.379-0.255-1.208 0.392-1.207l7.021 0.015c0.87 0.002 1.641-0.558 1.908-1.386l2.155-6.682z"></path>
</symbol>
<symbol id="icon-folder" viewBox="0 0 32 32">
<path d="M29.333 10.667v7.747c-0.813-0.467-1.707-0.787-2.667-0.96v-6.787h-21.333v13.333h12.12c-0.067 0.44-0.12 0.88-0.12 1.333s0.053 0.893 0.12 1.333h-12.12c-0.707 0-1.386-0.281-1.886-0.781s-0.781-1.178-0.781-1.886v-16c0-1.48 1.187-2.667 2.667-2.667h8l2.667 2.667h10.667c0.707 0 1.385 0.281 1.886 0.781s0.781 1.178 0.781 1.886zM22.667 29.333l6.667-4-6.667-4v8z"></path>
</symbol>
</defs>
</svg>
