<svg xmlns="http://www.w3.org/2000/svg" aria-hidden="true" style="position:absolute;width:0;height:0;overflow:hidden">
  <defs>
    <symbol id="icon-mail" viewBox="0 0 32 32">
      <path stroke-linecap="round" stroke-linejoin="round" stroke-width="2" d="M4 9.333a2.668 2.668 0 0 1 2.667-2.667h18.667a2.67 2.67 0 0 1 2.667 2.667v13.333a2.67 2.67 0 0 1-2.667 2.667H6.667A2.668 2.668 0 0 1 4 22.666V9.333z"/>
      <path stroke-linecap="round" stroke-linejoin="round" stroke-width="2" d="m4 9.333 12 8 12-8"/>
    </symbol>
    <symbol id="icon-list" viewBox="0 0 32 32">
      <path stroke-linecap="round" stroke-linejoin="round" stroke-width="2" d="M10 9h18m-18 7h18m-18 7h18M5 10a1 1 0 1 0 0-2 1 1 0 0 0 0 2zM5 17a1 1 0 1 0 0-2 1 1 0 0 0 0 2zM5 24a1 1 0 1 0 0-2 1 1 0 0 0 0 2z"/>
    </symbol>
    <symbol id="icon-analytics" viewBox="0 0 32 32">
      <path stroke-linecap="round" stroke-linejoin="round" stroke-width="2" d="M21.5 17.5 27 12m-12.5 1.5 4 4M5 20l6.5-6.5M28.5 12a1.5 1.5 0 1 0-.001-3.001A1.5 1.5 0 0 0 28.5 12zM20 20.5a1.5 1.5 0 1 0-.001-3.001A1.5 1.5 0 0 0 20 20.5zM13 13.5a1.5 1.5 0 1 0-.001-3.001A1.5 1.5 0 0 0 13 13.5zM3.5 23a1.5 1.5 0 1 0-.001-3.001A1.5 1.5 0 0 0 3.5 23z"/>
    </symbol>
    <symbol id="icon-online" viewBox="0 0 32 32">
      <path fill="black" d="M14.344 29.391c-.104.396-.182.797-.234 1.203s-.089.823-.109 1.25a15.513 15.513 0 0 1-7.172-2.734 16.218 16.218 0 0 1-6.344-9.218 15.49 15.49 0 0 1-.484-3.891c0-1.469.188-2.885.563-4.25s.911-2.641 1.609-3.828c.698-1.188 1.531-2.266 2.5-3.234s2.052-1.802 3.25-2.5S10.392.955 11.736.58s2.766-.568 4.266-.578c1.469 0 2.88.188 4.234.563s2.63.917 3.828 1.625 2.276 1.542 3.234 2.5 1.797 2.042 2.516 3.25c.719 1.208 1.255 2.479 1.609 3.813s.547 2.75.578 4.25h-1.109c-.146-.24-.297-.474-.453-.703s-.339-.448-.547-.656a11.867 11.867 0 0 0-.484-2.641H10.267c-.083.667-.146 1.328-.188 1.984s-.068 1.328-.078 2.016c0 .677.021 1.344.063 2s.109 1.323.203 2h5.734c0 .333.026.667.078 1s.12.667.203 1H10.61c.125.594.292 1.245.5 1.953s.469 1.401.781 2.078.672 1.313 1.078 1.906a5.937 5.937 0 0 0 1.375 1.453zM28.641 10c-.406-.844-.885-1.635-1.438-2.375s-1.177-1.417-1.875-2.031-1.437-1.161-2.219-1.641a12.205 12.205 0 0 0-2.531-1.172c.375.521.708 1.073 1 1.656s.557 1.182.797 1.797.443 1.24.609 1.875.313 1.266.437 1.891h5.219zM16 2c-.521 0-1 .141-1.437.422s-.844.651-1.219 1.109c-.375.458-.708.974-1 1.547s-.557 1.161-.797 1.766c-.24.604-.432 1.177-.578 1.719s-.266 1.021-.359 1.438h10.781a20.66 20.66 0 0 0-.937-3.157c-.229-.594-.489-1.177-.781-1.75s-.625-1.094-1-1.563c-.375-.469-.786-.839-1.234-1.109s-.927-.411-1.437-.422zm-4.562.766c-.885.302-1.729.688-2.531 1.156S7.36 4.938 6.673 5.563C5.985 6.188 5.36 6.87 4.798 7.61S3.756 9.146 3.36 10.001h5.219c.115-.573.255-1.182.422-1.828s.375-1.292.625-1.938c.25-.646.521-1.266.813-1.859s.625-1.13 1-1.609zM2 16c0 1.385.193 2.719.578 4H8.25a31.556 31.556 0 0 1-.188-6c.042-.656.104-1.323.188-2H2.578A13.825 13.825 0 0 0 2 16zm1.328 6c.406.844.885 1.635 1.438 2.375s1.177 1.422 1.875 2.047c.698.625 1.448 1.167 2.25 1.625s1.646.849 2.531 1.172c-.375-.521-.708-1.073-1-1.656s-.557-1.182-.797-1.797-.443-1.24-.609-1.875-.318-1.266-.453-1.891H3.329zm24.203 2.828c.677.344 1.292.766 1.844 1.266s1.021 1.063 1.406 1.687c.385.625.688 1.292.906 2S32.01 31.229 32 32h-2c0-.823-.156-1.599-.469-2.328s-.739-1.365-1.281-1.906c-.542-.542-1.182-.974-1.922-1.297S24.812 25.99 24 26c-.833 0-1.609.156-2.328.469s-1.354.739-1.906 1.281c-.552.542-.984 1.182-1.297 1.922S18 31.188 18 32h-2c0-.76.104-1.495.313-2.203s.505-1.38.891-2.016c.385-.635.854-1.198 1.406-1.687s1.167-.911 1.844-1.266c-.781-.563-1.385-1.266-1.812-2.109s-.641-1.75-.641-2.719c0-.823.156-1.599.469-2.328s.739-1.365 1.281-1.906c.542-.542 1.177-.974 1.906-1.297s1.51-.479 2.344-.469c.823 0 1.599.156 2.328.469s1.365.739 1.906 1.281c.542.542.974 1.182 1.297 1.922s.479 1.516.469 2.328a5.905 5.905 0 0 1-2.469 4.828zM24 24c.552 0 1.068-.104 1.547-.313s.906-.495 1.281-.859c.375-.365.661-.787.859-1.266s.302-1 .313-1.563c0-.552-.104-1.068-.313-1.547s-.495-.906-.859-1.281c-.365-.375-.787-.661-1.266-.859s-1-.302-1.563-.313c-.552 0-1.068.104-1.547.313s-.906.495-1.281.859c-.375.365-.661.787-.859 1.266s-.302 1-.313 1.563c0 .552.104 1.068.313 1.547s.495.906.859 1.281c.365.375.787.661 1.266.859s1 .302 1.563.313z"/>
    </symbol>
    <symbol id="icon-exit" viewBox="0 0 41 32">
      <path stroke-linecap="round" stroke-linejoin="round" stroke-width="2.824" d="M25.882 8.941V5.412a3.53 3.53 0 0 0-3.53-3.53H5.411a3.53 3.53 0 0 0-3.53 3.53v21.176a3.53 3.53 0 0 0 3.53 3.53h16.941a3.53 3.53 0 0 0 3.53-3.53v-3.529m5.647-14.118L38.588 16m0 0-7.059 7.059M38.588 16H14.5"/>
    </symbol>
    <symbol id="icon-right" viewBox="0 0 55 32">
      <path d="M51.567 13.159 31.331 1.052A3.277 3.277 0 0 0 28 1.01a3.61 3.61 0 0 0-1.795 3.158v8.47L6.842 1.049a3.277 3.277 0 0 0-3.331-.042 3.61 3.61 0 0 0-1.795 3.158v23.679a3.617 3.617 0 0 0 1.795 3.158 3.274 3.274 0 0 0 3.331-.042l19.363-11.594v8.473a3.62 3.62 0 0 0 1.796 3.163 3.274 3.274 0 0 0 3.331-.042l20.236-12.107a3.348 3.348 0 0 0 1.153-4.463 3.356 3.356 0 0 0-1.153-1.217v-.015z"/>
    </symbol>
    <symbol id="icon-play" viewBox="0 0 28 32">
      <path d="M.889 4.716c0-2.535 2.718-4.142 4.94-2.921L26.345 13.08c2.302 1.266 2.302 4.574 0 5.84L5.831 30.205c-2.222 1.221-4.94-.386-4.94-2.921L.889 4.715z"/>
    </symbol>
    <symbol id="icon-left" viewBox="0 0 55 32">
      <path d="M3.29 13.159 23.526 1.052a3.277 3.277 0 0 1 3.331-.042 3.61 3.61 0 0 1 1.795 3.158v8.47L48.015 1.049a3.277 3.277 0 0 1 3.331-.042 3.61 3.61 0 0 1 1.795 3.158v23.679a3.617 3.617 0 0 1-1.795 3.158 3.274 3.274 0 0 1-3.331-.042L28.652 19.366v8.473a3.62 3.62 0 0 1-1.796 3.163 3.274 3.274 0 0 1-3.331-.042L3.289 18.853a3.348 3.348 0 0 1-1.153-4.463 3.356 3.356 0 0 1 1.153-1.217v-.015z"/>
    </symbol>
    <symbol id="icon-next-right" viewBox="0 0 36 32">
      <path d="M0 2.001v28a2.001 2.001 0 0 0 3.008 1.728l24-14A1.994 1.994 0 0 0 28.001 16a2 2 0 0 0-.993-1.728l-24-14C2.704.095 2.359.001 2.007-.001s-.698.09-1.003.266A1.996 1.996 0 0 0 0 2zm34-2a2.002 2.002 0 0 1 1.986 1.766l.014.234v28a2.003 2.003 0 0 1-1.883 1.995 2 2 0 0 1-2.103-1.76L32 30.002v-28a2 2 0 0 1 2-2z"/>
    </symbol>
    <symbol id="icon-next-left" viewBox="0 0 36 32">
      <path d="M36 2.001v28a2.001 2.001 0 0 1-3.008 1.728l-24-14A1.994 1.994 0 0 1 7.999 16a2 2 0 0 1 .993-1.728l24-14c.304-.177.649-.271 1.001-.273s.698.09 1.003.266A1.996 1.996 0 0 1 36 2zm-34-2A2.002 2.002 0 0 0 .014 1.767L0 2.001v28a2.003 2.003 0 0 0 1.883 1.995 2 2 0 0 0 2.103-1.76L4 30.002v-28a2 2 0 0 0-2-2z"/>
    </symbol>
    <symbol id="icon-rmediaTec" viewBox="0 0 36 32">
      <path d="M35.556 7.111V17.44A11.044 11.044 0 0 0 32 16.16V7.111H3.556v17.778h16.16c-.089.587-.16 1.173-.16 1.778s.071 1.191.16 1.778H3.556A3.553 3.553 0 0 1 .001 24.89V3.557A3.544 3.544 0 0 1 3.557.001h10.667l3.556 3.556h14.222a3.553 3.553 0 0 1 3.555 3.555zM26.667 32l8.889-5.333-8.889-5.333v10.667z"/>
    </symbol>
    <symbol id="icon-allMusic" viewBox="0 0 50 32">
      <path stroke-linecap="round" stroke-linejoin="round" stroke-width="2.286" d="M12.704 2.027v27.945M7.776 7.809v16.382M2.857 13.109v5.781M17.665 7.809v16.382m5.132-11.082v5.781M37.336 2.027v27.945M32.408 7.809v16.382m-4.919-11.082v5.781M42.297 7.809v16.382m5.132-11.082v5.781"/>
    </symbol>
    <symbol id="icon-song" viewBox="0 0 30 32">
      <path d="M25.406 2.541c-.971.172-2.249.594-4.114 1.218L15.197 5.79c-1.032.344-1.713.573-2.216.808-.475.219-.681.398-.812.581s-.236.434-.296.955c-.061.549-.064 1.269-.064 2.356v3.163l16-5.333c0-1.893-.006-3.2-.146-4.152-.139-.949-.378-1.291-.645-1.484-.267-.192-.667-.311-1.612-.142zm4.674 3.555c-.018-.861-.061-1.615-.155-2.26-.177-1.208-.571-2.287-1.57-3.008-.998-.719-2.147-.751-3.349-.538-1.155.206-2.594.686-4.349 1.271l-6.245 2.08c-.954.32-1.76.588-2.394.884-.675.312-1.26.701-1.704 1.317s-.628 1.294-.712 2.033a14.16 14.16 0 0 0-.072 1.269h-.008v12.189a5.72 5.72 0 0 0-7.09.184 5.715 5.715 0 1 0 9.376 4.387v-9.842l16-5.333v7.558a5.72 5.72 0 0 0-7.09.184 5.715 5.715 0 1 0 9.377 4.387V6.096h-.015zm-2.27 16.762a3.428 3.428 0 1 0-6.856 0 3.428 3.428 0 0 0 6.856 0zM9.524 25.906a3.428 3.428 0 1 0-6.856 0 3.428 3.428 0 0 0 6.856 0z"/>
    </symbol>
    <symbol id="icon-playlist" viewBox="0 0 40 32">
      <path stroke-linejoin="round" stroke-width="4" d="M8 5.464 2 8.928V2l6 3.464z"/>
      <path stroke-linecap="round" stroke-linejoin="round" stroke-width="4" d="M2 17.465h36m-22-12h22m-36 24h36"/>
    </symbol>
    <symbol id="icon-build" viewBox="0 0 48 32">
      <path d="M45 28.5h-1.5V4.856l1.813-.39a1.507 1.507 0 0 0 .972-.643 1.51 1.51 0 0 0 .218-1.146 1.509 1.509 0 0 0-.668-.955 1.505 1.505 0 0 0-1.15-.189l-42 9a1.499 1.499 0 1 0 .632 2.932l1.183-.253v15.287H3a1.503 1.503 0 0 0-1.5 1.5 1.503 1.503 0 0 0 1.5 1.5h42a1.503 1.503 0 0 0 1.5-1.5 1.503 1.503 0 0 0-1.5-1.5zM7.5 12.563l33-7.063v23.001H36v-10.5a1.503 1.503 0 0 0-1.5-1.5h-21a1.503 1.503 0 0 0-1.5 1.5v10.5H7.5V12.564zM33 22.5H15v-3h18v3zm-18 3h18v3H15v-3z"/>
    </symbol>
    <symbol id="icon-plus" viewBox="0 0 34 32">
      <path d="M30.857 18.281H19.428v11.428a2.287 2.287 0 0 1-3.901 1.616 2.284 2.284 0 0 1-.669-1.616V18.281H3.429a2.287 2.287 0 0 1-1.616-3.901 2.287 2.287 0 0 1 1.616-.669h11.429V2.282A2.287 2.287 0 0 1 18.759.666c.428.428.669 1.01.669 1.616v11.429h11.429a2.287 2.287 0 0 1 1.616 3.901 2.287 2.287 0 0 1-1.616.669z"/>
    </symbol>
    <symbol id="icon-random" viewBox="0 0 43 32">
      <path d="M6.594 25.803c3.708 0 6.664-1.246 8.868-3.738 0-.175-.125-.328-.376-.459l-1.428-2.492c-.651 1.18-1.616 2.131-2.893 2.852s-2.668 1.082-4.171 1.082H2.911c-.401 0-.764.142-1.09.426s-.488.601-.488.951.163.667.488.951c.326.284.689.426 1.09.426h3.683zM34.551 2.459c-.802-.612-1.553-.612-2.255 0-.751.656-.751 1.311 0 1.967l2.029 1.836h-6.238c-3.657 0-6.589 1.246-8.793 3.738 0 .131.1.284.301.459l1.428 2.492c.651-1.18 1.616-2.131 2.893-2.852s2.668-1.082 4.171-1.082h6.238l-2.029 1.836c-.751.656-.751 1.311 0 1.967.301.262.676.393 1.127.393.351 0 .727-.131 1.127-.393l4.81-4.197c.651-.656.651-1.311 0-1.967l-4.81-4.197zm0 16.787c-.802-.612-1.553-.612-2.255 0-.751.656-.751 1.311 0 1.967l2.029 1.836h-6.238c-1.503 0-2.906-.361-4.209-1.082s-2.305-1.672-3.006-2.852l-1.729-3.082-1.804-3.082-.751-1.246c-.902-1.661-2.255-2.984-4.058-3.967S8.747 6.263 6.593 6.263H2.91c-.401 0-.764.142-1.09.426s-.488.601-.488.951.163.667.488.951.689.426 1.09.426h3.683c3.207 0 5.611 1.311 7.215 3.934l1.804 3.082 1.729 3.082.827 1.246c1.002 1.661 2.392 2.984 4.171 3.967s3.745 1.475 5.9 1.475h6.313l-2.104 1.836c-.752.656-.752 1.311 0 1.967.301.262.676.393 1.127.393.401 0 .777-.131 1.127-.393l4.81-4.197c.651-.656.651-1.311 0-1.967l-4.96-4.197z"/>
    </symbol>
    <symbol id="icon-music-album" viewBox="0 0 33 32">
      <path stroke-linecap="round" stroke-linejoin="round" stroke-width="2" d="M16.667 18.667a2.667 2.667 0 1 0 0-5.334 2.667 2.667 0 0 0 0 5.334zM24.667 14.667a2.667 2.667 0 1 0 0-5.334 2.667 2.667 0 0 0 0 5.334z"/>
      <path stroke-linecap="round" stroke-linejoin="round" stroke-width="2" d="M21.09 4.841a11.998 11.998 0 0 0-16.303 9.491 12.007 12.007 0 0 0 6.086 12.172 11.996 11.996 0 0 0 13.543-1.341 12 12 0 0 0 3.832-6.008M27.333 12V2.667L30 5.334"/>
    </symbol>
    <symbol id="icon-pen" viewBox="0 0 32 32">
      <path d="m26.594 12.238-5.891-5.83 1.941-1.943c.531-.532 1.184-.798 1.959-.798s1.427.266 1.957.798l1.941 1.943c.531.532.809 1.174.832 1.927s-.231 1.394-.762 1.925l-1.975 1.978zm-2.01 2.048L9.891 29H4v-5.9L18.693 8.386l5.891 5.9z"/>
    </symbol>
    <symbol id="icon-del" viewBox="0 0 28 32">
      <path d="M5.333 32c-.978 0-1.815-.348-2.512-1.045s-1.045-1.534-1.044-2.51V5.334H-.001V1.778h8.889V0h10.667v1.778h8.889v3.556h-1.778v23.111c0 .978-.348 1.815-1.045 2.512s-1.534 1.045-2.51 1.044H5.333zm3.556-7.111h3.556v-16H8.889v16zm7.111 0h3.556v-16H16v16z"/>
    </symbol>
    <symbol id="icon-close" viewBox="0 0 32 32">
      <path d="m8.533 25.333-1.867-1.867 7.467-7.467-7.467-7.467 1.867-1.867L16 14.132l7.467-7.467 1.867 1.867-7.467 7.467 7.467 7.467-1.867 1.867L16 17.866l-7.467 7.467z"/>
    </symbol>
    <symbol id="icon-Print" viewBox="0 0 32 32">
      <path d="M8.004 6.589V8H6.857a4.572 4.572 0 0 0-4.571 4.571v8a3.428 3.428 0 0 0 3.428 3.428H8v1.143a3.428 3.428 0 0 0 3.428 3.428h9.143a3.428 3.428 0 0 0 3.428-3.428v-1.143h2.286a3.428 3.428 0 0 0 3.428-3.428v-8A4.572 4.572 0 0 0 25.141 8h-1.143V6.574a3.132 3.132 0 0 0-.922-2.224 3.14 3.14 0 0 0-2.225-.919l-9.71.015a3.14 3.14 0 0 0-3.138 3.143zm14.281-.015V8H9.718V6.589c0-.789.638-1.427 1.426-1.429l9.71-.015a1.423 1.423 0 0 1 1.321.882c.072.174.109.359.109.547zm-10.857 11.14h9.143a1.714 1.714 0 0 1 1.714 1.714v5.714a1.714 1.714 0 0 1-1.714 1.714h-9.143a1.714 1.714 0 0 1-1.714-1.714v-5.714a1.714 1.714 0 0 1 1.714-1.714z"/>
    </symbol>
    <symbol id="icon-save" viewBox="0 0 32 32">
      <path stroke-linecap="round" stroke-linejoin="round" stroke-width="2.667" d="M10.667 9.333h-4A2.668 2.668 0 0 0 4 12v12a2.67 2.67 0 0 0 2.667 2.667h18.667A2.67 2.67 0 0 0 28.001 24V12a2.668 2.668 0 0 0-2.667-2.667h-4M20 14.667l-4 4m0 0-4-4m4 4V5.334"/>
    </symbol>
    <symbol id="icon-basket-arrow" viewBox="0 0 29 32">
      <path d="M11.856 1.482c-.634 0-1.284.223-1.744.683-.457.457-.681 1.107-.681 1.743v1.213H.943v2.425H2.27l2.311 21.941.114 1.099h19.174l.114-1.099 2.311-21.941h1.327V5.121h-8.488V3.908c0-.634-.222-1.284-.683-1.744-.457-.458-1.108-.681-1.743-.681h-4.851zm0 2.425h4.851V5.12h-4.851V3.907zM4.732 7.545h19.099l-2.16 20.615H6.891L4.731 7.545zm9.549 3.638L9.43 16.034h3.638v8.488h2.425v-8.488h3.638l-4.851-4.851z"/>
    </symbol>
    <symbol id="icon-basket" viewBox="0 0 32 32">
      <path stroke-width=".933" d="M9.333 28c-.733 0-1.361-.261-1.884-.784s-.784-1.15-.783-1.883V8H5.333V5.333H12V4h8v1.333h6.667V8h-1.333v17.333c0 .733-.261 1.361-.784 1.884s-1.15.784-1.883.783H9.334zM22.667 8H9.334v17.333h13.333V8zM12 22.667h2.667v-12H12v12zm5.333 0H20v-12h-2.667v12z"/>
    </symbol>
    <symbol id="icon-checkbox" viewBox="0 0 32 32">
      <path stroke-linejoin="round" stroke-width="2" d="M25 4H7a3 3 0 0 0-3 3v18a3 3 0 0 0 3 3h18a3 3 0 0 0 3-3V7a3 3 0 0 0-3-3z"/>
    </symbol>
    <symbol id="icon-Star" viewBox="0 0 35 32">
      <path stroke-width="1.684" d="M16.883 1.86c.251-.778 1.352-.778 1.603 0l2.722 8.44a2.526 2.526 0 0 0 2.41 1.751l8.868-.019c.818-.002 1.158 1.045.495 1.524l-7.186 5.197a2.526 2.526 0 0 0-.92 2.833l2.759 8.428c.254.777-.636 1.424-1.297.942l-7.163-5.228a2.526 2.526 0 0 0-2.979 0l-7.163 5.228c-.66.482-1.551-.165-1.297-.942l2.759-8.428a2.525 2.525 0 0 0-.921-2.833l-7.186-5.197c-.663-.479-.322-1.526.495-1.524l8.868.019a2.526 2.526 0 0 0 2.41-1.751l2.722-8.44z"/>
    </symbol>
    <symbol id="icon-cabinet" viewBox="0 0 32 32">
      <path fill="black" d="M18.667 10.667h-5.333V8h5.333v2.667zm8-5.334v21.333A2.658 2.658 0 0 1 24 29.333H8a2.658 2.658 0 0 1-2.667-2.667V5.333A2.668 2.668 0 0 1 8 2.666h16a2.67 2.67 0 0 1 2.667 2.667zm-2.667 12H8v9.333h16v-9.333zm0-12H8v9.333h16V5.333zM18.667 20h-5.333v2.667h5.333V20z"/>
    </symbol>
  </defs>
</svg>
