<svg xmlns="http://www.w3.org/2000/svg" aria-hidden="true" style="position:absolute;width:0;height:0;overflow:hidden">
  <defs>
    <symbol id="icon-mail" viewBox="0 0 32 32">
      <path  stroke-linecap="round" stroke-linejoin="round" stroke-width="2" d="M4 9.333a2.668 2.668 0 0 1 2.667-2.667h18.667a2.67 2.67 0 0 1 2.667 2.667v13.333a2.67 2.67 0 0 1-2.667 2.667H6.667A2.668 2.668 0 0 1 4 22.666V9.333z"/>
      <path  stroke-linecap="round" stroke-linejoin="round" stroke-width="2" d="m4 9.333 12 8 12-8"/>
    </symbol>
    <symbol id="icon-list" viewBox="0 0 32 32">
      <path stroke-linecap="round" stroke-linejoin="round" stroke-width="2" d="M10 9h18m-18 7h18m-18 7h18M5 10a1 1 0 1 0 0-2 1 1 0 0 0 0 2zM5 17a1 1 0 1 0 0-2 1 1 0 0 0 0 2zM5 24a1 1 0 1 0 0-2 1 1 0 0 0 0 2z"/>
    </symbol>
    <symbol id="icon-analytics" viewBox="0 0 32 32">
      <path stroke-linecap="round" stroke-linejoin="round" stroke-width="2" d="M21.5 17.5 27 12m-12.5 1.5 4 4M5 20l6.5-6.5M28.5 12a1.5 1.5 0 1 0-.001-3.001A1.5 1.5 0 0 0 28.5 12zM20 20.5a1.5 1.5 0 1 0-.001-3.001A1.5 1.5 0 0 0 20 20.5zM13 13.5a1.5 1.5 0 1 0-.001-3.001A1.5 1.5 0 0 0 13 13.5zM3.5 23a1.5 1.5 0 1 0-.001-3.001A1.5 1.5 0 0 0 3.5 23z"/>
    </symbol>
    <!-- <symbol id="icon-online" viewBox="0 0 32 32">
      <path  fill="#17161C" stroke="none"  d="M14.344 29.391c-.104.396-.182.797-.234 1.203s-.089.823-.109 1.25a15.513 15.513 0 0 1-7.172-2.734 16.218 16.218 0 0 1-6.344-9.218 15.49 15.49 0 0 1-.484-3.891c0-1.469.188-2.885.563-4.25s.911-2.641 1.609-3.828c.698-1.188 1.531-2.266 2.5-3.234s2.052-1.802 3.25-2.5S10.392.955 11.736.58s2.766-.568 4.266-.578c1.469 0 2.88.188 4.234.563s2.63.917 3.828 1.625 2.276 1.542 3.234 2.5 1.797 2.042 2.516 3.25c.719 1.208 1.255 2.479 1.609 3.813s.547 2.75.578 4.25h-1.109c-.146-.24-.297-.474-.453-.703s-.339-.448-.547-.656a11.867 11.867 0 0 0-.484-2.641H10.267c-.083.667-.146 1.328-.188 1.984s-.068 1.328-.078 2.016c0 .677.021 1.344.063 2s.109 1.323.203 2h5.734c0 .333.026.667.078 1s.12.667.203 1H10.61c.125.594.292 1.245.5 1.953s.469 1.401.781 2.078.672 1.313 1.078 1.906a5.937 5.937 0 0 0 1.375 1.453zM28.641 10c-.406-.844-.885-1.635-1.438-2.375s-1.177-1.417-1.875-2.031-1.437-1.161-2.219-1.641a12.205 12.205 0 0 0-2.531-1.172c.375.521.708 1.073 1 1.656s.557 1.182.797 1.797.443 1.24.609 1.875.313 1.266.437 1.891h5.219zM16 2c-.521 0-1 .141-1.437.422s-.844.651-1.219 1.109c-.375.458-.708.974-1 1.547s-.557 1.161-.797 1.766c-.24.604-.432 1.177-.578 1.719s-.266 1.021-.359 1.438h10.781a20.66 20.66 0 0 0-.937-3.157c-.229-.594-.489-1.177-.781-1.75s-.625-1.094-1-1.563c-.375-.469-.786-.839-1.234-1.109s-.927-.411-1.437-.422zm-4.562.766c-.885.302-1.729.688-2.531 1.156S7.36 4.938 6.673 5.563C5.985 6.188 5.36 6.87 4.798 7.61S3.756 9.146 3.36 10.001h5.219c.115-.573.255-1.182.422-1.828s.375-1.292.625-1.938c.25-.646.521-1.266.813-1.859s.625-1.13 1-1.609zM2 16c0 1.385.193 2.719.578 4H8.25a31.556 31.556 0 0 1-.188-6c.042-.656.104-1.323.188-2H2.578A13.825 13.825 0 0 0 2 16zm1.328 6c.406.844.885 1.635 1.438 2.375s1.177 1.422 1.875 2.047c.698.625 1.448 1.167 2.25 1.625s1.646.849 2.531 1.172c-.375-.521-.708-1.073-1-1.656s-.557-1.182-.797-1.797-.443-1.24-.609-1.875-.318-1.266-.453-1.891H3.329zm24.203 2.828c.677.344 1.292.766 1.844 1.266s1.021 1.063 1.406 1.687c.385.625.688 1.292.906 2S32.01 31.229 32 32h-2c0-.823-.156-1.599-.469-2.328s-.739-1.365-1.281-1.906c-.542-.542-1.182-.974-1.922-1.297S24.812 25.99 24 26c-.833 0-1.609.156-2.328.469s-1.354.739-1.906 1.281c-.552.542-.984 1.182-1.297 1.922S18 31.188 18 32h-2c0-.76.104-1.495.313-2.203s.505-1.38.891-2.016c.385-.635.854-1.198 1.406-1.687s1.167-.911 1.844-1.266c-.781-.563-1.385-1.266-1.812-2.109s-.641-1.75-.641-2.719c0-.823.156-1.599.469-2.328s.739-1.365 1.281-1.906c.542-.542 1.177-.974 1.906-1.297s1.51-.479 2.344-.469c.823 0 1.599.156 2.328.469s1.365.739 1.906 1.281c.542.542.974 1.182 1.297 1.922s.479 1.516.469 2.328a5.905 5.905 0 0 1-2.469 4.828zM24 24c.552 0 1.068-.104 1.547-.313s.906-.495 1.281-.859c.375-.365.661-.787.859-1.266s.302-1 .313-1.563c0-.552-.104-1.068-.313-1.547s-.495-.906-.859-1.281c-.365-.375-.787-.661-1.266-.859s-1-.302-1.563-.313c-.552 0-1.068.104-1.547.313s-.906.495-1.281.859c-.375.365-.661.787-.859 1.266s-.302 1-.313 1.563c0 .552.104 1.068.313 1.547s.495.906.859 1.281c.365.375.787.661 1.266.859s1 .302 1.563.313z"/>
    </symbol> -->
    <symbol id="icon-online" viewBox="0 0 32 32">
<path stroke-linecap="round" stroke-linejoin="round" stroke-width="1" d="M16 2.665c7.365 0 13.335 5.97 13.335 13.335 0 0.885-0.086 1.75-0.251 2.586-0.327-0.881-0.955-1.616-1.76-2.079 0.007-0.168 0.011-0.337 0.011-0.507 0-0.919-0.109-1.813-0.316-2.669l-4.477 0.001c0.083 0.863 0.127 1.756 0.127 2.668 0 0.34-0.006 0.676-0.018 1.010-0.809 0.732-1.318 1.79-1.318 2.967 0 0.791 0.229 1.527 0.625 2.148-0.044 0.177-0.090 0.351-0.138 0.524-1.204 0.064-2.238 0.767-2.771 1.775 0.331-0.707 0.625-1.522 0.869-2.425h-7.837c0.869 3.219 2.381 5.336 3.919 5.336 1.062 0 2.11-1.009 2.944-2.692-0.179 0.409-0.278 0.86-0.278 1.334 0 1.089 0.264 2.075 0.741 2.919-1.088 0.287-2.23 0.439-3.408 0.439-7.365 0-13.335-5.97-13.335-13.335s5.97-13.335 13.335-13.335zM10.011 22.001l-3.63-0c1.278 2.044 3.189 3.652 5.459 4.548-0.696-1.093-1.271-2.461-1.694-4.021l-0.135-0.527zM9.458 13.333h-4.477l-0.006 0.023c-0.203 0.849-0.31 1.734-0.31 2.645 0 1.408 0.257 2.756 0.726 4l4.231-0.001c-0.19-1.265-0.29-2.61-0.29-4 0-0.912 0.043-1.804 0.127-2.668zM11.471 13.333c-0.091 0.854-0.139 1.747-0.139 2.667 0 1.413 0.115 2.76 0.32 4h8.698c0.205-1.24 0.32-2.587 0.32-4 0-0.921-0.049-1.814-0.139-2.667h-9.058zM11.842 5.453l-0.031 0.012c-2.73 1.086-4.938 3.203-6.144 5.869l4.064 0c0.418-2.337 1.147-4.372 2.11-5.881zM16 4.665l-0.154 0.007c-1.687 0.154-3.317 2.824-4.074 6.661h8.457c-0.755-3.827-2.378-6.492-4.060-6.66l-0.168-0.008zM20.16 5.453l0.142 0.232c0.892 1.483 1.57 3.43 1.967 5.649l4.064-0c-1.153-2.549-3.221-4.595-5.785-5.719l-0.388-0.162zM28.667 23.978c1.105 0 2 0.895 2 2 0 1.488-0.612 2.68-1.616 3.487-0.988 0.793-2.313 1.18-3.717 1.18s-2.729-0.387-3.717-1.18c-0.352-0.283-0.656-0.612-0.902-0.986-0.456-0.692-0.715-1.534-0.715-2.501 0-0.88 0.569-1.627 1.358-1.895 0.201-0.068 0.417-0.105 0.642-0.105h6.667zM28 19.978c0 1.473-1.194 2.667-2.667 2.667-0.049 0-0.097-0.001-0.145-0.004-0.607-0.033-1.16-0.268-1.592-0.64-0.564-0.485-0.922-1.2-0.929-2-0-0.007-0-0.015-0-0.023 0-1.473 1.194-2.667 2.667-2.667 0.704 0 1.344 0.273 1.821 0.719 0.52 0.487 0.846 1.179 0.846 1.948z"></path>
</symbol>
    <symbol id="icon-exit" viewBox="0 0 41 32">
      <path stroke-linecap="round" stroke-linejoin="round" stroke-width="2.824" d="M25.882 8.941V5.412a3.53 3.53 0 0 0-3.53-3.53H5.411a3.53 3.53 0 0 0-3.53 3.53v21.176a3.53 3.53 0 0 0 3.53 3.53h16.941a3.53 3.53 0 0 0 3.53-3.53v-3.529m5.647-14.118L38.588 16m0 0-7.059 7.059M38.588 16H14.5"/>
    </symbol>
    <symbol id="icon-right" viewBox="0 0 55 32">
      <path d="M51.567 13.159 31.331 1.052A3.277 3.277 0 0 0 28 1.01a3.61 3.61 0 0 0-1.795 3.158v8.47L6.842 1.049a3.277 3.277 0 0 0-3.331-.042 3.61 3.61 0 0 0-1.795 3.158v23.679a3.617 3.617 0 0 0 1.795 3.158 3.274 3.274 0 0 0 3.331-.042l19.363-11.594v8.473a3.62 3.62 0 0 0 1.796 3.163 3.274 3.274 0 0 0 3.331-.042l20.236-12.107a3.348 3.348 0 0 0 1.153-4.463 3.356 3.356 0 0 0-1.153-1.217v-.015z"/>
    </symbol>
    <symbol id="icon-play" viewBox="0 0 28 32">
      <path d="M.889 4.716c0-2.535 2.718-4.142 4.94-2.921L26.345 13.08c2.302 1.266 2.302 4.574 0 5.84L5.831 30.205c-2.222 1.221-4.94-.386-4.94-2.921L.889 4.715z"/>
    </symbol>
    <symbol id="icon-left" viewBox="0 0 55 32">
      <path d="M3.29 13.159 23.526 1.052a3.277 3.277 0 0 1 3.331-.042 3.61 3.61 0 0 1 1.795 3.158v8.47L48.015 1.049a3.277 3.277 0 0 1 3.331-.042 3.61 3.61 0 0 1 1.795 3.158v23.679a3.617 3.617 0 0 1-1.795 3.158 3.274 3.274 0 0 1-3.331-.042L28.652 19.366v8.473a3.62 3.62 0 0 1-1.796 3.163 3.274 3.274 0 0 1-3.331-.042L3.289 18.853a3.348 3.348 0 0 1-1.153-4.463 3.356 3.356 0 0 1 1.153-1.217v-.015z"/>
    </symbol>
    <symbol id="icon-next-right" viewBox="0 0 36 32">
      <path d="M0 2.001v28a2.001 2.001 0 0 0 3.008 1.728l24-14A1.994 1.994 0 0 0 28.001 16a2 2 0 0 0-.993-1.728l-24-14C2.704.095 2.359.001 2.007-.001s-.698.09-1.003.266A1.996 1.996 0 0 0 0 2zm34-2a2.002 2.002 0 0 1 1.986 1.766l.014.234v28a2.003 2.003 0 0 1-1.883 1.995 2 2 0 0 1-2.103-1.76L32 30.002v-28a2 2 0 0 1 2-2z"/>
    </symbol>
    <symbol id="icon-next-left" viewBox="0 0 36 32">
      <path d="M36 2.001v28a2.001 2.001 0 0 1-3.008 1.728l-24-14A1.994 1.994 0 0 1 7.999 16a2 2 0 0 1 .993-1.728l24-14c.304-.177.649-.271 1.001-.273s.698.09 1.003.266A1.996 1.996 0 0 1 36 2zm-34-2A2.002 2.002 0 0 0 .014 1.767L0 2.001v28a2.003 2.003 0 0 0 1.883 1.995 2 2 0 0 0 2.103-1.76L4 30.002v-28a2 2 0 0 0-2-2z"/>
    </symbol>
    <symbol id="icon-rmediaTec" viewBox="0 0 36 32">
      <path d="M35.556 7.111V17.44A11.044 11.044 0 0 0 32 16.16V7.111H3.556v17.778h16.16c-.089.587-.16 1.173-.16 1.778s.071 1.191.16 1.778H3.556A3.553 3.553 0 0 1 .001 24.89V3.557A3.544 3.544 0 0 1 3.557.001h10.667l3.556 3.556h14.222a3.553 3.553 0 0 1 3.555 3.555zM26.667 32l8.889-5.333-8.889-5.333v10.667z"/>
    </symbol>
    <symbol id="icon-allMusic" viewBox="0 0 50 32">
      <path stroke-linecap="round" stroke-linejoin="round" stroke-width="2.286" d="M12.704 2.027v27.945M7.776 7.809v16.382M2.857 13.109v5.781M17.665 7.809v16.382m5.132-11.082v5.781M37.336 2.027v27.945M32.408 7.809v16.382m-4.919-11.082v5.781M42.297 7.809v16.382m5.132-11.082v5.781"/>
    </symbol>
    <symbol id="icon-song"  viewBox="0 0 30 32">
      <path d="M25.406 2.541c-.971.172-2.249.594-4.114 1.218L15.197 5.79c-1.032.344-1.713.573-2.216.808-.475.219-.681.398-.812.581s-.236.434-.296.955c-.061.549-.064 1.269-.064 2.356v3.163l16-5.333c0-1.893-.006-3.2-.146-4.152-.139-.949-.378-1.291-.645-1.484-.267-.192-.667-.311-1.612-.142zm4.674 3.555c-.018-.861-.061-1.615-.155-2.26-.177-1.208-.571-2.287-1.57-3.008-.998-.719-2.147-.751-3.349-.538-1.155.206-2.594.686-4.349 1.271l-6.245 2.08c-.954.32-1.76.588-2.394.884-.675.312-1.26.701-1.704 1.317s-.628 1.294-.712 2.033a14.16 14.16 0 0 0-.072 1.269h-.008v12.189a5.72 5.72 0 0 0-7.09.184 5.715 5.715 0 1 0 9.376 4.387v-9.842l16-5.333v7.558a5.72 5.72 0 0 0-7.09.184 5.715 5.715 0 1 0 9.377 4.387V6.096h-.015zm-2.27 16.762a3.428 3.428 0 1 0-6.856 0 3.428 3.428 0 0 0 6.856 0zM9.524 25.906a3.428 3.428 0 1 0-6.856 0 3.428 3.428 0 0 0 6.856 0z"/>
    </symbol>
    <symbol id="icon-playlist"  viewBox="0 0 40 32">
      <path stroke-linejoin="round" stroke-width="4" d="M8 5.464 2 8.928V2l6 3.464z"/>
      <path stroke-linecap="round" stroke-linejoin="round" stroke-width="4" d="M2 17.465h36m-22-12h22m-36 24h36"/>
    </symbol>
    <symbol id="icon-build" viewBox="0 0 48 32">
      <path d="M45 28.5h-1.5V4.856l1.813-.39a1.507 1.507 0 0 0 .972-.643 1.51 1.51 0 0 0 .218-1.146 1.509 1.509 0 0 0-.668-.955 1.505 1.505 0 0 0-1.15-.189l-42 9a1.499 1.499 0 1 0 .632 2.932l1.183-.253v15.287H3a1.503 1.503 0 0 0-1.5 1.5 1.503 1.503 0 0 0 1.5 1.5h42a1.503 1.503 0 0 0 1.5-1.5 1.503 1.503 0 0 0-1.5-1.5zM7.5 12.563l33-7.063v23.001H36v-10.5a1.503 1.503 0 0 0-1.5-1.5h-21a1.503 1.503 0 0 0-1.5 1.5v10.5H7.5V12.564zM33 22.5H15v-3h18v3zm-18 3h18v3H15v-3z"/>
    </symbol>

    <symbol id="icon-plus" viewBox="0 0 24 24">
    <path d="M18.5 12.998H13.5V17.998C13.5 18.2633 13.3946 18.5176 13.2071 18.7052C13.0196 18.8927 12.7652 18.998 12.5 18.998C12.2348 18.998 11.9804 18.8927 11.7929 18.7052C11.6054 18.5176 11.5 18.2633 11.5 17.998V12.998H6.5C6.23478 12.998 5.98043 12.8927 5.79289 12.7052C5.60536 12.5176 5.5 12.2633 5.5 11.998C5.5 11.7328 5.60536 11.4785 5.79289 11.2909C5.98043 11.1034 6.23478 10.998 6.5 10.998H11.5V5.99805C11.5 5.73283 11.6054 5.47848 11.7929 5.29094C11.9804 5.1034 12.2348 4.99805 12.5 4.99805C12.7652 4.99805 13.0196 5.1034 13.2071 5.29094C13.3946 5.47848 13.5 5.73283 13.5 5.99805V10.998H18.5C18.7652 10.998 19.0196 11.1034 19.2071 11.2909C19.3946 11.4785 19.5 11.7328 19.5 11.998C19.5 12.2633 19.3946 12.5176 19.2071 12.7052C19.0196 12.8927 18.7652 12.998 18.5 12.998Z"/>
    </symbol>
    <symbol id="icon-random" viewBox="0 0 43 32">
      <path d="M6.594 25.803c3.708 0 6.664-1.246 8.868-3.738 0-.175-.125-.328-.376-.459l-1.428-2.492c-.651 1.18-1.616 2.131-2.893 2.852s-2.668 1.082-4.171 1.082H2.911c-.401 0-.764.142-1.09.426s-.488.601-.488.951.163.667.488.951c.326.284.689.426 1.09.426h3.683zM34.551 2.459c-.802-.612-1.553-.612-2.255 0-.751.656-.751 1.311 0 1.967l2.029 1.836h-6.238c-3.657 0-6.589 1.246-8.793 3.738 0 .131.1.284.301.459l1.428 2.492c.651-1.18 1.616-2.131 2.893-2.852s2.668-1.082 4.171-1.082h6.238l-2.029 1.836c-.751.656-.751 1.311 0 1.967.301.262.676.393 1.127.393.351 0 .727-.131 1.127-.393l4.81-4.197c.651-.656.651-1.311 0-1.967l-4.81-4.197zm0 16.787c-.802-.612-1.553-.612-2.255 0-.751.656-.751 1.311 0 1.967l2.029 1.836h-6.238c-1.503 0-2.906-.361-4.209-1.082s-2.305-1.672-3.006-2.852l-1.729-3.082-1.804-3.082-.751-1.246c-.902-1.661-2.255-2.984-4.058-3.967S8.747 6.263 6.593 6.263H2.91c-.401 0-.764.142-1.09.426s-.488.601-.488.951.163.667.488.951.689.426 1.09.426h3.683c3.207 0 5.611 1.311 7.215 3.934l1.804 3.082 1.729 3.082.827 1.246c1.002 1.661 2.392 2.984 4.171 3.967s3.745 1.475 5.9 1.475h6.313l-2.104 1.836c-.752.656-.752 1.311 0 1.967.301.262.676.393 1.127.393.401 0 .777-.131 1.127-.393l4.81-4.197c.651-.656.651-1.311 0-1.967l-4.96-4.197z"/>
    </symbol>
    <symbol id="icon-music-album"   viewBox="0 0 33 32">
      <path  stroke-linecap="round" stroke-linejoin="round" stroke-width="2"  d="M16.667 18.667a2.667 2.667 0 1 0 0-5.334 2.667 2.667 0 0 0 0 5.334zM24.667 14.667a2.667 2.667 0 1 0 0-5.334 2.667 2.667 0 0 0 0 5.334z"/>
      <path   stroke-linecap="round" stroke-linejoin="round" stroke-width="2" d="M21.09 4.841a11.998 11.998 0 0 0-16.303 9.491 12.007 12.007 0 0 0 6.086 12.172 11.996 11.996 0 0 0 13.543-1.341 12 12 0 0 0 3.832-6.008M27.333 12V2.667L30 5.334"/>
    </symbol>
    <symbol id="icon-pen" viewBox="0 0 32 32">
      <path d="m26.594 12.238-5.891-5.83 1.941-1.943c.531-.532 1.184-.798 1.959-.798s1.427.266 1.957.798l1.941 1.943c.531.532.809 1.174.832 1.927s-.231 1.394-.762 1.925l-1.975 1.978zm-2.01 2.048L9.891 29H4v-5.9L18.693 8.386l5.891 5.9z"/>
    </symbol>
    <symbol id="icon-del" viewBox="0 0 28 32">
      <path d="M5.333 32c-.978 0-1.815-.348-2.512-1.045s-1.045-1.534-1.044-2.51V5.334H-.001V1.778h8.889V0h10.667v1.778h8.889v3.556h-1.778v23.111c0 .978-.348 1.815-1.045 2.512s-1.534 1.045-2.51 1.044H5.333zm3.556-7.111h3.556v-16H8.889v16zm7.111 0h3.556v-16H16v16z"/>
    </symbol>
    <symbol id="icon-close" viewBox="0 0 32 32">
      <path d="m8.533 25.333-1.867-1.867 7.467-7.467-7.467-7.467 1.867-1.867L16 14.132l7.467-7.467 1.867 1.867-7.467 7.467 7.467 7.467-1.867 1.867L16 17.866l-7.467 7.467z"/>
    </symbol>
    <symbol id="icon-Print" viewBox="0 0 32 32">
      <path d="M8.004 6.589V8H6.857a4.572 4.572 0 0 0-4.571 4.571v8a3.428 3.428 0 0 0 3.428 3.428H8v1.143a3.428 3.428 0 0 0 3.428 3.428h9.143a3.428 3.428 0 0 0 3.428-3.428v-1.143h2.286a3.428 3.428 0 0 0 3.428-3.428v-8A4.572 4.572 0 0 0 25.141 8h-1.143V6.574a3.132 3.132 0 0 0-.922-2.224 3.14 3.14 0 0 0-2.225-.919l-9.71.015a3.14 3.14 0 0 0-3.138 3.143zm14.281-.015V8H9.718V6.589c0-.789.638-1.427 1.426-1.429l9.71-.015a1.423 1.423 0 0 1 1.321.882c.072.174.109.359.109.547zm-10.857 11.14h9.143a1.714 1.714 0 0 1 1.714 1.714v5.714a1.714 1.714 0 0 1-1.714 1.714h-9.143a1.714 1.714 0 0 1-1.714-1.714v-5.714a1.714 1.714 0 0 1 1.714-1.714z"/>
    </symbol>
    <symbol id="icon-save" viewBox="0 0 32 32">
      <path stroke-linecap="round" stroke-linejoin="round" stroke-width="2.667" d="M10.667 9.333h-4A2.668 2.668 0 0 0 4 12v12a2.67 2.67 0 0 0 2.667 2.667h18.667A2.67 2.67 0 0 0 28.001 24V12a2.668 2.668 0 0 0-2.667-2.667h-4M20 14.667l-4 4m0 0-4-4m4 4V5.334"/>
    </symbol>
    <symbol id="icon-basket-arrow" viewBox="0 0 29 32">
      <path d="M11.856 1.482c-.634 0-1.284.223-1.744.683-.457.457-.681 1.107-.681 1.743v1.213H.943v2.425H2.27l2.311 21.941.114 1.099h19.174l.114-1.099 2.311-21.941h1.327V5.121h-8.488V3.908c0-.634-.222-1.284-.683-1.744-.457-.458-1.108-.681-1.743-.681h-4.851zm0 2.425h4.851V5.12h-4.851V3.907zM4.732 7.545h19.099l-2.16 20.615H6.891L4.731 7.545zm9.549 3.638L9.43 16.034h3.638v8.488h2.425v-8.488h3.638l-4.851-4.851z"/>
    </symbol>
    <symbol id="icon-basket" viewBox="0 0 32 32">
      <path stroke-width=".933" d="M9.333 28c-.733 0-1.361-.261-1.884-.784s-.784-1.15-.783-1.883V8H5.333V5.333H12V4h8v1.333h6.667V8h-1.333v17.333c0 .733-.261 1.361-.784 1.884s-1.15.784-1.883.783H9.334zM22.667 8H9.334v17.333h13.333V8zM12 22.667h2.667v-12H12v12zm5.333 0H20v-12h-2.667v12z"/>
    </symbol>
    <symbol id="icon-checkbox" viewBox="0 0 32 32">
      <path stroke-linejoin="round" stroke-width="2" d="M25 4H7a3 3 0 0 0-3 3v18a3 3 0 0 0 3 3h18a3 3 0 0 0 3-3V7a3 3 0 0 0-3-3z"/>
    </symbol>
    <symbol id="icon-Star" viewBox="0 0 35 32">
      <path stroke-width="1.684" d="M16.883 1.86c.251-.778 1.352-.778 1.603 0l2.722 8.44a2.526 2.526 0 0 0 2.41 1.751l8.868-.019c.818-.002 1.158 1.045.495 1.524l-7.186 5.197a2.526 2.526 0 0 0-.92 2.833l2.759 8.428c.254.777-.636 1.424-1.297.942l-7.163-5.228a2.526 2.526 0 0 0-2.979 0l-7.163 5.228c-.66.482-1.551-.165-1.297-.942l2.759-8.428a2.525 2.525 0 0 0-.921-2.833l-7.186-5.197c-.663-.479-.322-1.526.495-1.524l8.868.019a2.526 2.526 0 0 0 2.41-1.751l2.722-8.44z"/>
    </symbol>
    <!-- <symbol id="icon-cabinet" viewBox="0 0 32 32">
      <path fill="#17161C" stroke="none" stroke-width="2" d="M18.667 10.667h-5.333V8h5.333v2.667zm8-5.334v21.333A2.658 2.658 0 0 1 24 29.333H8a2.658 2.658 0 0 1-2.667-2.667V5.333A2.668 2.668 0 0 1 8 2.666h16a2.67 2.67 0 0 1 2.667 2.667zm-2.667 12H8v9.333h16v-9.333zm0-12H8v9.333h16V5.333zM18.667 20h-5.333v2.667h5.333V20z"/>
    </symbol> -->
    <symbol id="icon-cabinet" viewBox="0 0 32 32">
<path  d="M28 32h-24c-0.8 0-1.333-0.533-1.333-1.333v-14.667c0-0.8 0.533-1.333 1.333-1.333h24c0.8 0 1.333 0.533 1.333 1.333v14.667c0 0.8-0.533 1.333-1.333 1.333zM5.333 29.333h21.333v-12h-21.333v12z"></path>
<path d="M18.667 22.667h-5.333c-0.8 0-1.333-0.533-1.333-1.333s0.533-1.333 1.333-1.333h5.333c0.8 0 1.333 0.533 1.333 1.333s-0.533 1.333-1.333 1.333z"></path>
<path d="M28 17.333h-24c-0.8 0-1.333-0.533-1.333-1.333v-14.667c0-0.8 0.533-1.333 1.333-1.333h24c0.8 0 1.333 0.533 1.333 1.333v14.667c0 0.8-0.533 1.333-1.333 1.333zM5.333 14.667h21.333v-12h-21.333v12z"></path>
<path d="M18.667 8h-5.333c-0.8 0-1.333-0.533-1.333-1.333s0.533-1.333 1.333-1.333h5.333c0.8 0 1.333 0.533 1.333 1.333s-0.533 1.333-1.333 1.333z"></path>
</symbol>
<symbol id="icon-arrow" viewBox="0 0 32 32">
<path d="M13.4 22.587v-5.333h11.893l0.040-2.68h-11.933v-5.32l-6.667 6.667 6.667 6.667z"></path>
</symbol>
<symbol id="icon-del-basket" viewBox="0 0 33 32">
<path fill="#17161C" d="M10 5.333c0-0.707 0.281-1.386 0.781-1.886s1.178-0.781 1.886-0.781h8c0.707 0 1.385 0.281 1.886 0.781s0.781 1.178 0.781 1.886v2.667h5.333c0.354 0 0.693 0.14 0.943 0.391s0.391 0.589 0.391 0.943c0 0.354-0.141 0.693-0.391 0.943s-0.589 0.391-0.943 0.391h-1.425l-1.156 16.189c-0.048 0.673-0.349 1.302-0.843 1.762s-1.143 0.715-1.817 0.715h-13.519c-0.674 0-1.324-0.256-1.817-0.715s-0.795-1.089-0.843-1.762l-1.153-16.189h-1.427c-0.354 0-0.693-0.14-0.943-0.391s-0.391-0.589-0.391-0.943c0-0.354 0.14-0.693 0.391-0.943s0.589-0.391 0.943-0.391h5.333v-2.667zM12.667 8h8v-2.667h-8v2.667zM8.765 10.667l1.143 16h13.519l1.143-16h-15.804zM14 13.333c0.354 0 0.693 0.141 0.943 0.391s0.391 0.589 0.391 0.943v8c0 0.354-0.141 0.693-0.391 0.943s-0.589 0.391-0.943 0.391c-0.354 0-0.693-0.141-0.943-0.391s-0.391-0.589-0.391-0.943v-8c0-0.354 0.14-0.693 0.391-0.943s0.589-0.391 0.943-0.391zM19.333 13.333c0.354 0 0.693 0.141 0.943 0.391s0.391 0.589 0.391 0.943v8c0 0.354-0.141 0.693-0.391 0.943s-0.589 0.391-0.943 0.391c-0.354 0-0.693-0.141-0.943-0.391s-0.391-0.589-0.391-0.943v-8c0-0.354 0.141-0.693 0.391-0.943s0.589-0.391 0.943-0.391z"></path>
</symbol>
<symbol id="icon-playlist-add" viewBox="0 0 32 32">
<path d="M17.333 13.333h-13.333c-0.733 0-1.333 0.6-1.333 1.333s0.6 1.333 1.333 1.333h13.333c0.733 0 1.333-0.6 1.333-1.333s-0.6-1.333-1.333-1.333zM17.333 8h-13.333c-0.733 0-1.333 0.6-1.333 1.333s0.6 1.333 1.333 1.333h13.333c0.733 0 1.333-0.6 1.333-1.333s-0.6-1.333-1.333-1.333zM24 18.667v-4c0-0.733-0.6-1.333-1.333-1.333s-1.333 0.6-1.333 1.333v4h-4c-0.733 0-1.333 0.6-1.333 1.333s0.6 1.333 1.333 1.333h4v4c0 0.733 0.6 1.333 1.333 1.333s1.333-0.6 1.333-1.333v-4h4c0.733 0 1.333-0.6 1.333-1.333s-0.6-1.333-1.333-1.333h-4zM4 21.333h8c0.733 0 1.333-0.6 1.333-1.333s-0.6-1.333-1.333-1.333h-8c-0.733 0-1.333 0.6-1.333 1.333s0.6 1.333 1.333 1.333z"></path>
</symbol>
<symbol id="icon-heart-empty" viewBox="0 0 32 32">
<path stroke-linejoin="miter" stroke-linecap="butt" stroke-miterlimit="4" stroke-width="2" d="M16.006 26.991v0l-0.006 0.003-0.006-0.003c-0.242-0.128-3.549-1.93-6.779-4.759-3.283-2.875-6.214-6.574-6.215-10.481 0.002-1.79 0.714-3.505 1.98-4.771s2.981-1.977 4.771-1.98c2.289 0 4.243 0.979 5.45 2.587l0.8 1.065 0.8-1.065c1.207-1.607 3.161-2.587 5.45-2.587 1.79 0.002 3.505 0.714 4.771 1.98s1.978 2.982 1.98 4.772c-0.001 3.907-2.932 7.606-6.215 10.481-3.231 2.829-6.537 4.631-6.779 4.759z"></path>
</symbol>
  <symbol id="icon-heart-full" viewBox="0 0 32 32">
<path d="M30 11.75c0 8.75-12.974 15.833-13.526 16.125-0.146 0.078-0.308 0.119-0.474 0.119s-0.328-0.041-0.474-0.119c-0.553-0.292-13.526-7.375-13.526-16.125 0.002-2.055 0.82-4.025 2.272-5.478s3.423-2.27 5.478-2.272c2.581 0 4.841 1.11 6.25 2.986 1.409-1.876 3.669-2.986 6.25-2.986 2.055 0.002 4.025 0.82 5.477 2.272s2.27 3.423 2.273 5.478z"></path>
</symbol>
<symbol id="icon-check" viewBox="0 0 32 32">
<path d="M28.306 9.727c0.134-0.126 0.291-0.224 0.463-0.29s0.355-0.096 0.538-0.091 0.365 0.046 0.532 0.121c0.168 0.075 0.319 0.182 0.445 0.315s0.225 0.29 0.29 0.461c0.065 0.171 0.097 0.354 0.091 0.537s-0.047 0.364-0.122 0.531c-0.075 0.167-0.183 0.318-0.316 0.444l-12.593 11.862c-0.26 0.245-0.604 0.381-0.961 0.381s-0.701-0.137-0.961-0.381l-12.594-11.862c-0.136-0.125-0.247-0.276-0.324-0.444s-0.121-0.35-0.127-0.534c-0.007-0.185 0.024-0.369 0.089-0.542s0.165-0.331 0.292-0.466c0.127-0.134 0.28-0.242 0.449-0.317s0.352-0.116 0.537-0.12c0.185-0.004 0.37 0.029 0.542 0.096s0.33 0.169 0.463 0.297l11.634 10.958 11.631-10.958z"></path>
</symbol>
<symbol id="icon-dots" viewBox="0 0 32 32">
<path d="M8.091 19.2c1.818 0 3.291-1.433 3.291-3.2s-1.474-3.2-3.291-3.2-3.291 1.433-3.291 3.2c0 1.767 1.474 3.2 3.291 3.2z"></path>
<path d="M16.32 19.2c1.818 0 3.292-1.433 3.292-3.2s-1.474-3.2-3.292-3.2-3.291 1.433-3.291 3.2c0 1.767 1.474 3.2 3.291 3.2z"></path>
<path d="M24.549 19.2c1.818 0 3.291-1.433 3.291-3.2s-1.474-3.2-3.291-3.2c-1.818 0-3.292 1.433-3.292 3.2s1.474 3.2 3.292 3.2z"></path>
</symbol>
<symbol id="icon-sort" viewBox="0 0 32 32">
<path d="M8.374 5.724c0.25-0.25 0.589-0.39 0.943-0.39s0.693 0.14 0.943 0.39l5.333 5.333c0.243 0.251 0.377 0.588 0.374 0.938s-0.143 0.684-0.391 0.931c-0.247 0.247-0.582 0.387-0.931 0.39s-0.686-0.131-0.938-0.374l-3.057-3.057v15.448c0 0.354-0.14 0.693-0.391 0.943s-0.589 0.391-0.943 0.391c-0.354 0-0.693-0.141-0.943-0.391s-0.391-0.589-0.391-0.943v-15.448l-3.057 3.057c-0.251 0.243-0.588 0.377-0.938 0.374s-0.684-0.143-0.931-0.39c-0.247-0.247-0.387-0.582-0.39-0.931s0.131-0.686 0.374-0.938l5.333-5.333zM21.317 22.115v-15.448c0-0.354 0.141-0.693 0.391-0.943s0.589-0.391 0.943-0.391c0.354 0 0.693 0.14 0.943 0.391s0.391 0.589 0.391 0.943v15.448l3.057-3.057c0.251-0.243 0.588-0.377 0.938-0.374s0.684 0.143 0.931 0.391c0.247 0.247 0.387 0.582 0.391 0.931s-0.131 0.686-0.374 0.938l-5.333 5.333c-0.25 0.25-0.589 0.39-0.943 0.39s-0.693-0.14-0.943-0.39l-5.333-5.333c-0.243-0.251-0.377-0.588-0.374-0.938s0.143-0.684 0.391-0.931 0.582-0.387 0.931-0.391c0.35-0.003 0.686 0.131 0.938 0.374l3.057 3.057z"></path>
</symbol>
  </defs>



</svg>
